<?xml version="1.0" encoding="UTF-8" standalone="no"?><svg xmlns="http://www.w3.org/2000/svg" xmlns:xlink="http://www.w3.org/1999/xlink" contentStyleType="text/css" height="269px" preserveAspectRatio="none" style="width:217px;height:269px;background:#FFFFFF;" version="1.1" viewBox="0 0 217 269" width="217px" zoomAndPan="magnify"><defs/><g><!--MD5=[149ddbbbe74e4f9e12942c9fdbd48f51]
cluster Root Panel.lvlib--><g id="cluster_Root Panel.lvlib"><path d="M8.5,129 L116.5,129 A3.75,3.75 0 0 1 119,131.5 L126,151.7999 L207.5,151.7999 A2.5,2.5 0 0 1 210,154.2999 L210,259.5 A2.5,2.5 0 0 1 207.5,262 L8.5,262 A2.5,2.5 0 0 1 6,259.5 L6,131.5 A2.5,2.5 0 0 1 8.5,129 " style="stroke:#000000;stroke-width:1.5;fill:none;"/><line style="stroke:#000000;stroke-width:1.5;fill:none;" x1="6" x2="126" y1="151.7999" y2="151.7999"/><text fill="#000000" font-family="sans-serif" font-size="14" font-weight="bold" lengthAdjust="spacing" textLength="107" x="10" y="144.9999">Root Panel.lvlib</text></g><!--MD5=[c3bba3c91c036041d3a1ed31e588f991]
cluster Appearance Actor.lvlib--><g id="cluster_Appearance Actor.lvlib"><path d="M22.5,6 L178.5,6 A3.75,3.75 0 0 1 181,8.5 L188,28.7999 L193.5,28.7999 A2.5,2.5 0 0 1 196,31.2999 L196,102.5 A2.5,2.5 0 0 1 193.5,105 L22.5,105 A2.5,2.5 0 0 1 20,102.5 L20,8.5 A2.5,2.5 0 0 1 22.5,6 " style="stroke:#000000;stroke-width:1.5;fill:none;"/><line style="stroke:#000000;stroke-width:1.5;fill:none;" x1="20" x2="188" y1="28.7999" y2="28.7999"/><text fill="#000000" font-family="sans-serif" font-size="14" font-weight="bold" lengthAdjust="spacing" textLength="155" x="24" y="21.9999">Appearance Actor.lvlib</text></g><!--MD5=[3a428beac703bd1fbc6ec9ffc5dc5543]
class Root Panel.lvlib:Root Panel Actor--><g id="elem_Root Panel.lvlib:Root Panel Actor"><rect codeLine="8" fill="#FFFFFF" height="81.5999" id="Root Panel.lvlib:Root Panel Actor" rx="2.5" ry="2.5" style="stroke:#555555;stroke-width:0.5;" width="172" x="22" y="164"/><rect fill="#808080" height="32" rx="2.5" ry="2.5" style="stroke:#808080;stroke-width:0.5;" width="172" x="22" y="164"/><rect fill="#808080" height="2.5" style="stroke:#808080;stroke-width:0.5;" width="172" x="22" y="193.5"/><rect codeLine="8" fill="none" height="81.5999" id="Root Panel.lvlib:Root Panel Actor" rx="2.5" ry="2.5" style="stroke:#555555;stroke-width:0.5;" width="172" x="22" y="164"/><ellipse cx="53.65" cy="180" fill="#ADD1B2" rx="11" ry="11" style="stroke:#181818;stroke-width:1.0;"/><path d="M53.0094,183.7813 Q53.8063,183.7813 54.3688,183.5938 Q54.9469,183.3906 55.1813,183.1719 Q55.4313,182.9375 55.6656,182.75 Q55.9156,182.5469 56.1344,182.5469 Q56.4781,182.5469 56.7281,182.8125 Q56.9938,183.0625 56.9938,183.3906 Q56.9938,184.125 55.8219,184.8125 Q54.6656,185.4844 52.9625,185.4844 Q50.8063,185.4844 49.3844,184.2188 Q47.9625,182.9531 47.9625,181.0156 L47.9625,179.8906 Q47.9625,177.8594 49.2906,176.4844 Q50.6188,175.0938 52.5875,175.0938 Q53.775,175.0938 54.9938,175.6719 L55.1656,175.75 Q55.4625,175.3438 55.8844,175.3438 Q56.3688,175.3438 56.5406,175.6406 Q56.7281,175.9219 56.7281,176.4688 L56.7281,177.8906 Q56.7281,179.0156 55.8844,179.0156 Q55.5719,179.0156 55.3688,178.8438 Q55.1813,178.6719 55.1344,178.5313 Q55.1031,178.375 55.0563,178.1094 Q54.9469,177.5938 54.4313,177.2813 Q53.9156,176.9688 53.4625,176.8906 Q53.025,176.7969 52.65,176.7969 Q51.3688,176.7969 50.5094,177.6719 Q49.6656,178.5469 49.6656,179.8906 L49.6656,180.9844 Q49.6656,182.2656 50.5719,183.0313 Q51.4781,183.7813 53.0094,183.7813 Z " fill="#000000"/><text fill="#000000" font-family="sans-serif" font-size="14" lengthAdjust="spacing" textLength="103" x="71.35" y="185.6">Root Panel Actor</text><line style="stroke:#555555;stroke-width:0.5;" x1="23" x2="193" y1="196" y2="196"/><rect fill="none" height="6" style="stroke:#C82930;stroke-width:1.0;" width="6" x="30" y="204"/><text fill="#000000" font-family="sans-serif" font-size="14" lengthAdjust="spacing" textLength="146" x="42" y="213.9999">FP References : Cluster</text><line style="stroke:#555555;stroke-width:0.5;" x1="23" x2="193" y1="220.7999" y2="220.7999"/><polygon fill="#FFFF44" points="33,226.7999,37,230.7999,33,234.7999,29,230.7999" style="stroke:#B38D22;stroke-width:1.0;"/><text fill="#000000" font-family="sans-serif" font-size="14" lengthAdjust="spacing" textLength="75" x="42" y="238.7999">Actor Core()</text></g><!--MD5=[5ad34a604fa31012c46bd54d8284e51d]
class Appearance Actor.lvlib:Appearance Actor--><g id="elem_Appearance Actor.lvlib:Appearance Actor"><rect fill="#FFFFFF" height="48" id="Appearance Actor.lvlib:Appearance Actor" rx="2.5" ry="2.5" style="stroke:#555555;stroke-width:0.5;" width="143" x="36.5" y="41"/><rect fill="#808080" height="32" rx="2.5" ry="2.5" style="stroke:#808080;stroke-width:0.5;" width="143" x="36.5" y="41"/><rect fill="#808080" height="2.5" style="stroke:#808080;stroke-width:0.5;" width="143" x="36.5" y="70.5"/><rect fill="none" height="48" id="Appearance Actor.lvlib:Appearance Actor" rx="2.5" ry="2.5" style="stroke:#555555;stroke-width:0.5;" width="143" x="36.5" y="41"/><ellipse cx="51.5" cy="57" fill="#ADD1B2" rx="11" ry="11" style="stroke:#181818;stroke-width:1.0;"/><path d="M50.8594,60.7813 Q51.6563,60.7813 52.2188,60.5938 Q52.7969,60.3906 53.0313,60.1719 Q53.2813,59.9375 53.5156,59.75 Q53.7656,59.5469 53.9844,59.5469 Q54.3281,59.5469 54.5781,59.8125 Q54.8438,60.0625 54.8438,60.3906 Q54.8438,61.125 53.6719,61.8125 Q52.5156,62.4844 50.8125,62.4844 Q48.6563,62.4844 47.2344,61.2188 Q45.8125,59.9531 45.8125,58.0156 L45.8125,56.8906 Q45.8125,54.8594 47.1406,53.4844 Q48.4688,52.0938 50.4375,52.0938 Q51.625,52.0938 52.8438,52.6719 L53.0156,52.75 Q53.3125,52.3438 53.7344,52.3438 Q54.2188,52.3438 54.3906,52.6406 Q54.5781,52.9219 54.5781,53.4688 L54.5781,54.8906 Q54.5781,56.0156 53.7344,56.0156 Q53.4219,56.0156 53.2188,55.8438 Q53.0313,55.6719 52.9844,55.5313 Q52.9531,55.375 52.9063,55.1094 Q52.7969,54.5938 52.2813,54.2813 Q51.7656,53.9688 51.3125,53.8906 Q50.875,53.7969 50.5,53.7969 Q49.2188,53.7969 48.3594,54.6719 Q47.5156,55.5469 47.5156,56.8906 L47.5156,57.9844 Q47.5156,59.2656 48.4219,60.0313 Q49.3281,60.7813 50.8594,60.7813 Z " fill="#000000"/><text fill="#000000" font-family="sans-serif" font-size="14" lengthAdjust="spacing" textLength="111" x="65.5" y="62.6">Appearance Actor</text><line style="stroke:#555555;stroke-width:0.5;" x1="37.5" x2="178.5" y1="73" y2="73"/><line style="stroke:#555555;stroke-width:0.5;" x1="37.5" x2="178.5" y1="81" y2="81"/></g><!--MD5=[ea463185a6d15471e07819020b2e3ad4]
reverse link Appearance Actor.lvlib:Appearance Actor to Root Panel.lvlib:Root Panel Actor--><g id="link_Appearance Actor.lvlib:Appearance Actor_Root Panel.lvlib:Root Panel Actor"><path codeLine="13" d="M108,109.37 C108,126.77 108,146.7 108,163.77 " fill="none" id="Appearance Actor.lvlib:Appearance Actor-backto-Root Panel.lvlib:Root Panel Actor" style="stroke:#181818;stroke-width:1.0;"/><polygon fill="none" points="101,109.1,108,89.1,115,109.1,101,109.1" style="stroke:#181818;stroke-width:1.0;"/></g><!--MD5=[482cee628b2f45ea677d7074258b5e19]
@startuml
set namespaceSeparator :
skinparam ClassBackgroundColor #FFFFFF
skinparam ClassBorderColor #555555
skinparam ClassFontColor #000000
skinparam ClassHeaderBackgroundColor #808080

skinparam top to bottom direction
class "Root Panel.lvlib:Root Panel Actor" {
{field} -FP References : Cluster
{method} #Actor Core()

}
"Appearance Actor.lvlib:Appearance Actor" <|- - "Root Panel.lvlib:Root Panel Actor"



@enduml

PlantUML version 1.2022.5(Sat Apr 30 10:55:52 GMT 2022)
(GPL source distribution)
Java Runtime: OpenJDK Runtime Environment
JVM: OpenJDK 64-Bit Server VM
Default Encoding: UTF-8
Language: en
Country: US
--></g></svg>