<?xml version="1.0" encoding="UTF-8" standalone="no"?><svg xmlns="http://www.w3.org/2000/svg" xmlns:xlink="http://www.w3.org/1999/xlink" contentStyleType="text/css" height="386px" preserveAspectRatio="none" style="width:381px;height:386px;background:#FFFFFF;" version="1.1" viewBox="0 0 381 386" width="381px" zoomAndPan="magnify"><defs/><g><!--MD5=[c3bba3c91c036041d3a1ed31e588f991]
cluster Appearance Actor.lvlib--><g id="cluster_Appearance Actor.lvlib"><path d="M8.5,129 L164.5,129 A3.75,3.75 0 0 1 167,131.5 L174,151.7999 L371.5,151.7999 A2.5,2.5 0 0 1 374,154.2999 L374,376.5 A2.5,2.5 0 0 1 371.5,379 L8.5,379 A2.5,2.5 0 0 1 6,376.5 L6,131.5 A2.5,2.5 0 0 1 8.5,129 " style="stroke:#000000;stroke-width:1.5;fill:none;"/><line style="stroke:#000000;stroke-width:1.5;fill:none;" x1="6" x2="174" y1="151.7999" y2="151.7999"/><text fill="#000000" font-family="sans-serif" font-size="14" font-weight="bold" lengthAdjust="spacing" textLength="155" x="10" y="144.9999">Appearance Actor.lvlib</text></g><!--MD5=[eb79118e7c2849c52d4edd7dce9ad818]
cluster Panel Actor.lvlib--><g id="cluster_Panel Actor.lvlib"><path d="M124.5,6 L236.5,6 A3.75,3.75 0 0 1 239,8.5 L246,28.7999 L255.5,28.7999 A2.5,2.5 0 0 1 258,31.2999 L258,102.5 A2.5,2.5 0 0 1 255.5,105 L124.5,105 A2.5,2.5 0 0 1 122,102.5 L122,8.5 A2.5,2.5 0 0 1 124.5,6 " style="stroke:#000000;stroke-width:1.5;fill:none;"/><line style="stroke:#000000;stroke-width:1.5;fill:none;" x1="122" x2="246" y1="28.7999" y2="28.7999"/><text fill="#000000" font-family="sans-serif" font-size="14" font-weight="bold" lengthAdjust="spacing" textLength="111" x="126" y="21.9999">Panel Actor.lvlib</text></g><!--MD5=[5ad34a604fa31012c46bd54d8284e51d]
class Appearance Actor.lvlib:Appearance Actor--><g id="elem_Appearance Actor.lvlib:Appearance Actor"><rect codeLine="8" fill="#FFFFFF" height="199.1993" id="Appearance Actor.lvlib:Appearance Actor" rx="2.5" ry="2.5" style="stroke:#555555;stroke-width:0.5;" width="335" x="22.5" y="164"/><rect fill="#808080" height="32" rx="2.5" ry="2.5" style="stroke:#808080;stroke-width:0.5;" width="335" x="22.5" y="164"/><rect fill="#808080" height="2.5" style="stroke:#808080;stroke-width:0.5;" width="335" x="22.5" y="193.5"/><rect codeLine="8" fill="none" height="199.1993" id="Appearance Actor.lvlib:Appearance Actor" rx="2.5" ry="2.5" style="stroke:#555555;stroke-width:0.5;" width="335" x="22.5" y="164"/><ellipse cx="130.25" cy="180" fill="#ADD1B2" rx="11" ry="11" style="stroke:#181818;stroke-width:1.0;"/><path d="M129.6094,183.7813 Q130.4063,183.7813 130.9688,183.5938 Q131.5469,183.3906 131.7813,183.1719 Q132.0313,182.9375 132.2656,182.75 Q132.5156,182.5469 132.7344,182.5469 Q133.0781,182.5469 133.3281,182.8125 Q133.5938,183.0625 133.5938,183.3906 Q133.5938,184.125 132.4219,184.8125 Q131.2656,185.4844 129.5625,185.4844 Q127.4063,185.4844 125.9844,184.2188 Q124.5625,182.9531 124.5625,181.0156 L124.5625,179.8906 Q124.5625,177.8594 125.8906,176.4844 Q127.2188,175.0938 129.1875,175.0938 Q130.375,175.0938 131.5938,175.6719 L131.7656,175.75 Q132.0625,175.3438 132.4844,175.3438 Q132.9688,175.3438 133.1406,175.6406 Q133.3281,175.9219 133.3281,176.4688 L133.3281,177.8906 Q133.3281,179.0156 132.4844,179.0156 Q132.1719,179.0156 131.9688,178.8438 Q131.7813,178.6719 131.7344,178.5313 Q131.7031,178.375 131.6563,178.1094 Q131.5469,177.5938 131.0313,177.2813 Q130.5156,176.9688 130.0625,176.8906 Q129.625,176.7969 129.25,176.7969 Q127.9688,176.7969 127.1094,177.6719 Q126.2656,178.5469 126.2656,179.8906 L126.2656,180.9844 Q126.2656,182.2656 127.1719,183.0313 Q128.0781,183.7813 129.6094,183.7813 Z " fill="#000000"/><text fill="#000000" font-family="sans-serif" font-size="14" lengthAdjust="spacing" textLength="111" x="150.75" y="185.6">Appearance Actor</text><line style="stroke:#555555;stroke-width:0.5;" x1="23.5" x2="356.5" y1="196" y2="196"/><ellipse cx="33.5" cy="207" fill="none" rx="3" ry="3" style="stroke:#038048;stroke-width:1.0;"/><text fill="#000000" font-family="sans-serif" font-size="14" lengthAdjust="spacing" textLength="135" x="42.5" y="213.9999">Theme DVR : NoType</text><rect fill="none" height="6" style="stroke:#C82930;stroke-width:1.0;" width="6" x="30.5" y="220.7999"/><text fill="#000000" font-family="sans-serif" font-size="14" lengthAdjust="spacing" textLength="164" x="42.5" y="230.7999">Panel References : Cluster</text><line style="stroke:#555555;stroke-width:0.5;" x1="23.5" x2="356.5" y1="237.5999" y2="237.5999"/><ellipse cx="33.5" cy="248.5999" fill="#84BE84" rx="3" ry="3" style="stroke:#038048;stroke-width:1.0;"/><text fill="#000000" font-family="sans-serif" font-size="14" lengthAdjust="spacing" textLength="91" x="42.5" y="255.5998">Apply Theme()</text><ellipse cx="33.5" cy="265.3998" fill="#84BE84" rx="3" ry="3" style="stroke:#038048;stroke-width:1.0;"/><text fill="#000000" font-family="sans-serif" font-size="14" lengthAdjust="spacing" textLength="153" x="42.5" y="272.3997">Load Theme-Root Only()</text><ellipse cx="33.5" cy="282.1997" fill="#84BE84" rx="3" ry="3" style="stroke:#038048;stroke-width:1.0;"/><text fill="#000000" font-family="sans-serif" font-size="14" lengthAdjust="spacing" textLength="309" x="42.5" y="289.1996">Propagate Theme To Nested Appearance Actors()</text><ellipse cx="33.5" cy="298.9996" fill="#84BE84" rx="3" ry="3" style="stroke:#038048;stroke-width:1.0;"/><text fill="#000000" font-family="sans-serif" font-size="14" lengthAdjust="spacing" textLength="179" x="42.5" y="305.9996">Recieve Theme From Caller()</text><polygon fill="#FFFF44" points="33.5,310.7996,37.5,314.7996,33.5,318.7996,29.5,314.7996" style="stroke:#B38D22;stroke-width:1.0;"/><text fill="#000000" font-family="sans-serif" font-size="14" lengthAdjust="spacing" textLength="105" x="42.5" y="322.7995">Pre Launch Init()</text><polygon fill="#FFFF44" points="33.5,327.5995,37.5,331.5995,33.5,335.5995,29.5,331.5995" style="stroke:#B38D22;stroke-width:1.0;"/><text fill="#000000" font-family="sans-serif" font-size="14" lengthAdjust="spacing" textLength="71" x="42.5" y="339.5994">Stop Core()</text><polygon fill="#FFFF44" points="33.5,344.3994,37.5,348.3994,33.5,352.3994,29.5,348.3994" style="stroke:#B38D22;stroke-width:1.0;"/><text fill="#000000" font-family="sans-serif" font-size="14" lengthAdjust="spacing" textLength="108" x="42.5" y="356.3994">Substitute Actor()</text></g><!--MD5=[bf84cfc61a49d162cf2e28f3a7ad502a]
class Panel Actor.lvlib:Panel Actor--><g id="elem_Panel Actor.lvlib:Panel Actor"><rect fill="#FFFFFF" height="48" id="Panel Actor.lvlib:Panel Actor" rx="2.5" ry="2.5" style="stroke:#555555;stroke-width:0.5;" width="103" x="138.5" y="41"/><rect fill="#808080" height="32" rx="2.5" ry="2.5" style="stroke:#808080;stroke-width:0.5;" width="103" x="138.5" y="41"/><rect fill="#808080" height="2.5" style="stroke:#808080;stroke-width:0.5;" width="103" x="138.5" y="70.5"/><rect fill="none" height="48" id="Panel Actor.lvlib:Panel Actor" rx="2.5" ry="2.5" style="stroke:#555555;stroke-width:0.5;" width="103" x="138.5" y="41"/><ellipse cx="153.5" cy="57" fill="#ADD1B2" rx="11" ry="11" style="stroke:#181818;stroke-width:1.0;"/><path d="M152.8594,60.7813 Q153.6563,60.7813 154.2188,60.5938 Q154.7969,60.3906 155.0313,60.1719 Q155.2813,59.9375 155.5156,59.75 Q155.7656,59.5469 155.9844,59.5469 Q156.3281,59.5469 156.5781,59.8125 Q156.8438,60.0625 156.8438,60.3906 Q156.8438,61.125 155.6719,61.8125 Q154.5156,62.4844 152.8125,62.4844 Q150.6563,62.4844 149.2344,61.2188 Q147.8125,59.9531 147.8125,58.0156 L147.8125,56.8906 Q147.8125,54.8594 149.1406,53.4844 Q150.4688,52.0938 152.4375,52.0938 Q153.625,52.0938 154.8438,52.6719 L155.0156,52.75 Q155.3125,52.3438 155.7344,52.3438 Q156.2188,52.3438 156.3906,52.6406 Q156.5781,52.9219 156.5781,53.4688 L156.5781,54.8906 Q156.5781,56.0156 155.7344,56.0156 Q155.4219,56.0156 155.2188,55.8438 Q155.0313,55.6719 154.9844,55.5313 Q154.9531,55.375 154.9063,55.1094 Q154.7969,54.5938 154.2813,54.2813 Q153.7656,53.9688 153.3125,53.8906 Q152.875,53.7969 152.5,53.7969 Q151.2188,53.7969 150.3594,54.6719 Q149.5156,55.5469 149.5156,56.8906 L149.5156,57.9844 Q149.5156,59.2656 150.4219,60.0313 Q151.3281,60.7813 152.8594,60.7813 Z " fill="#000000"/><text fill="#000000" font-family="sans-serif" font-size="14" lengthAdjust="spacing" textLength="71" x="167.5" y="62.6">Panel Actor</text><line style="stroke:#555555;stroke-width:0.5;" x1="139.5" x2="240.5" y1="73" y2="73"/><line style="stroke:#555555;stroke-width:0.5;" x1="139.5" x2="240.5" y1="81" y2="81"/></g><!--MD5=[7da667676494ed9e42204643ae36cdb7]
reverse link Panel Actor.lvlib:Panel Actor to Appearance Actor.lvlib:Appearance Actor--><g id="link_Panel Actor.lvlib:Panel Actor_Appearance Actor.lvlib:Appearance Actor"><path codeLine="20" d="M190,109.31 C190,125.52 190,144.66 190,163.82 " fill="none" id="Panel Actor.lvlib:Panel Actor-backto-Appearance Actor.lvlib:Appearance Actor" style="stroke:#181818;stroke-width:1.0;"/><polygon fill="none" points="183,109.31,190,89.31,197,109.31,183,109.31" style="stroke:#181818;stroke-width:1.0;"/></g><!--MD5=[bfc6c05089068d4a661791b4984ba5d1]
@startuml
set namespaceSeparator :
skinparam ClassBackgroundColor #FFFFFF
skinparam ClassBorderColor #555555
skinparam ClassFontColor #000000
skinparam ClassHeaderBackgroundColor #808080

skinparam top to bottom direction
class "Appearance Actor.lvlib:Appearance Actor" {
{field} +Theme DVR : NoType
{field} -Panel References : Cluster
{method} +Apply Theme()
{method} +Load Theme-Root Only()
{method} +Propagate Theme To Nested Appearance Actors()
{method} +Recieve Theme From Caller()
{method} #Pre Launch Init()
{method} #Stop Core()
{method} #Substitute Actor()

}
"Panel Actor.lvlib:Panel Actor" <|- - "Appearance Actor.lvlib:Appearance Actor"



@enduml

PlantUML version 1.2022.5(Sat Apr 30 10:55:52 GMT 2022)
(GPL source distribution)
Java Runtime: OpenJDK Runtime Environment
JVM: OpenJDK 64-Bit Server VM
Default Encoding: UTF-8
Language: en
Country: US
--></g></svg>