<?xml version="1.0" encoding="UTF-8" standalone="no"?><svg xmlns="http://www.w3.org/2000/svg" xmlns:xlink="http://www.w3.org/1999/xlink" contentStyleType="text/css" height="269px" preserveAspectRatio="none" style="width:205px;height:269px;background:#FFFFFF;" version="1.1" viewBox="0 0 205 269" width="205px" zoomAndPan="magnify"><defs/><g><!--MD5=[c3bba3c91c036041d3a1ed31e588f991]
cluster Appearance Actor.lvlib--><g id="cluster_Appearance Actor.lvlib"><path d="M8.5,129 L164.5,129 A3.75,3.75 0 0 1 167,131.5 L174,151.7999 L189.5,151.7999 A2.5,2.5 0 0 1 192,154.2999 L192,259.5 A2.5,2.5 0 0 1 189.5,262 L8.5,262 A2.5,2.5 0 0 1 6,259.5 L6,131.5 A2.5,2.5 0 0 1 8.5,129 " style="stroke:#000000;stroke-width:1.5;fill:none;"/><line style="stroke:#000000;stroke-width:1.5;fill:none;" x1="6" x2="174" y1="151.7999" y2="151.7999"/><text fill="#000000" font-family="sans-serif" font-size="14" font-weight="bold" lengthAdjust="spacing" textLength="155" x="10" y="144.9999">Appearance Actor.lvlib</text></g><!--MD5=[4682a97c6ce0bfcadfccb11b1ed944c5]
cluster Actor Framework.lvlib--><g id="cluster_Actor Framework.lvlib"><path d="M35.5,6 L185.5,6 A3.75,3.75 0 0 1 188,8.5 L195,28.7999 L195.5,28.7999 A2.5,2.5 0 0 1 198,31.2999 L198,102.5 A2.5,2.5 0 0 1 195.5,105 L35.5,105 A2.5,2.5 0 0 1 33,102.5 L33,8.5 A2.5,2.5 0 0 1 35.5,6 " style="stroke:#000000;stroke-width:1.5;fill:none;"/><line style="stroke:#000000;stroke-width:1.5;fill:none;" x1="33" x2="195" y1="28.7999" y2="28.7999"/><text fill="#000000" font-family="sans-serif" font-size="14" font-weight="bold" lengthAdjust="spacing" textLength="149" x="37" y="21.9999">Actor Framework.lvlib</text></g><!--MD5=[2d39246e44d174bd688017c602593eed]
class Appearance Actor.lvlib:Apply Theme Msg--><g id="elem_Appearance Actor.lvlib:Apply Theme Msg"><rect codeLine="8" fill="#FFFFFF" height="81.5999" id="Appearance Actor.lvlib:Apply Theme Msg" rx="2.5" ry="2.5" style="stroke:#555555;stroke-width:0.5;" width="153" x="22.5" y="164"/><rect fill="#808080" height="32" rx="2.5" ry="2.5" style="stroke:#808080;stroke-width:0.5;" width="153" x="22.5" y="164"/><rect fill="#808080" height="2.5" style="stroke:#808080;stroke-width:0.5;" width="153" x="22.5" y="193.5"/><rect codeLine="8" fill="none" height="81.5999" id="Appearance Actor.lvlib:Apply Theme Msg" rx="2.5" ry="2.5" style="stroke:#555555;stroke-width:0.5;" width="153" x="22.5" y="164"/><ellipse cx="41.55" cy="180" fill="#ADD1B2" rx="11" ry="11" style="stroke:#181818;stroke-width:1.0;"/><path d="M40.9094,183.7813 Q41.7063,183.7813 42.2688,183.5938 Q42.8469,183.3906 43.0813,183.1719 Q43.3313,182.9375 43.5656,182.75 Q43.8156,182.5469 44.0344,182.5469 Q44.3781,182.5469 44.6281,182.8125 Q44.8938,183.0625 44.8938,183.3906 Q44.8938,184.125 43.7219,184.8125 Q42.5656,185.4844 40.8625,185.4844 Q38.7063,185.4844 37.2844,184.2188 Q35.8625,182.9531 35.8625,181.0156 L35.8625,179.8906 Q35.8625,177.8594 37.1906,176.4844 Q38.5188,175.0938 40.4875,175.0938 Q41.675,175.0938 42.8938,175.6719 L43.0656,175.75 Q43.3625,175.3438 43.7844,175.3438 Q44.2688,175.3438 44.4406,175.6406 Q44.6281,175.9219 44.6281,176.4688 L44.6281,177.8906 Q44.6281,179.0156 43.7844,179.0156 Q43.4719,179.0156 43.2688,178.8438 Q43.0813,178.6719 43.0344,178.5313 Q43.0031,178.375 42.9563,178.1094 Q42.8469,177.5938 42.3313,177.2813 Q41.8156,176.9688 41.3625,176.8906 Q40.925,176.7969 40.55,176.7969 Q39.2688,176.7969 38.4094,177.6719 Q37.5656,178.5469 37.5656,179.8906 L37.5656,180.9844 Q37.5656,182.2656 38.4719,183.0313 Q39.3781,183.7813 40.9094,183.7813 Z " fill="#000000"/><text fill="#000000" font-family="sans-serif" font-size="14" lengthAdjust="spacing" textLength="112" x="56.45" y="185.6">Apply Theme Msg</text><line style="stroke:#555555;stroke-width:0.5;" x1="23.5" x2="174.5" y1="196" y2="196"/><line style="stroke:#555555;stroke-width:0.5;" x1="23.5" x2="174.5" y1="204" y2="204"/><ellipse cx="33.5" cy="215" fill="#84BE84" rx="3" ry="3" style="stroke:#038048;stroke-width:1.0;"/><text fill="#000000" font-family="sans-serif" font-size="14" lengthAdjust="spacing" text-decoration="underline" textLength="127" x="42.5" y="221.9999">Send Apply Theme()</text><ellipse cx="33.5" cy="231.7999" fill="#84BE84" rx="3" ry="3" style="stroke:#038048;stroke-width:1.0;"/><text fill="#000000" font-family="sans-serif" font-size="14" lengthAdjust="spacing" textLength="27" x="42.5" y="238.7999">Do()</text></g><!--MD5=[214c99f83f762f8ee15e0e75722647ab]
class Actor Framework.lvlib:Message--><g id="elem_Actor Framework.lvlib:Message"><rect fill="#FFFFFF" height="48" id="Actor Framework.lvlib:Message" rx="2.5" ry="2.5" style="stroke:#555555;stroke-width:0.5;" width="88" x="55" y="41"/><rect fill="#808080" height="32" rx="2.5" ry="2.5" style="stroke:#808080;stroke-width:0.5;" width="88" x="55" y="41"/><rect fill="#808080" height="2.5" style="stroke:#808080;stroke-width:0.5;" width="88" x="55" y="70.5"/><rect fill="none" height="48" id="Actor Framework.lvlib:Message" rx="2.5" ry="2.5" style="stroke:#555555;stroke-width:0.5;" width="88" x="55" y="41"/><ellipse cx="70" cy="57" fill="#ADD1B2" rx="11" ry="11" style="stroke:#181818;stroke-width:1.0;"/><path d="M69.3594,60.7813 Q70.1563,60.7813 70.7188,60.5938 Q71.2969,60.3906 71.5313,60.1719 Q71.7813,59.9375 72.0156,59.75 Q72.2656,59.5469 72.4844,59.5469 Q72.8281,59.5469 73.0781,59.8125 Q73.3438,60.0625 73.3438,60.3906 Q73.3438,61.125 72.1719,61.8125 Q71.0156,62.4844 69.3125,62.4844 Q67.1563,62.4844 65.7344,61.2188 Q64.3125,59.9531 64.3125,58.0156 L64.3125,56.8906 Q64.3125,54.8594 65.6406,53.4844 Q66.9688,52.0938 68.9375,52.0938 Q70.125,52.0938 71.3438,52.6719 L71.5156,52.75 Q71.8125,52.3438 72.2344,52.3438 Q72.7188,52.3438 72.8906,52.6406 Q73.0781,52.9219 73.0781,53.4688 L73.0781,54.8906 Q73.0781,56.0156 72.2344,56.0156 Q71.9219,56.0156 71.7188,55.8438 Q71.5313,55.6719 71.4844,55.5313 Q71.4531,55.375 71.4063,55.1094 Q71.2969,54.5938 70.7813,54.2813 Q70.2656,53.9688 69.8125,53.8906 Q69.375,53.7969 69,53.7969 Q67.7188,53.7969 66.8594,54.6719 Q66.0156,55.5469 66.0156,56.8906 L66.0156,57.9844 Q66.0156,59.2656 66.9219,60.0313 Q67.8281,60.7813 69.3594,60.7813 Z " fill="#000000"/><text fill="#000000" font-family="sans-serif" font-size="14" lengthAdjust="spacing" textLength="56" x="84" y="62.6">Message</text><line style="stroke:#555555;stroke-width:0.5;" x1="56" x2="142" y1="73" y2="73"/><line style="stroke:#555555;stroke-width:0.5;" x1="56" x2="142" y1="81" y2="81"/></g><!--MD5=[c706da2a400ea1a41e34b5cb896daeb3]
reverse link Actor Framework.lvlib:Message to Appearance Actor.lvlib:Apply Theme Msg--><g id="link_Actor Framework.lvlib:Message_Appearance Actor.lvlib:Apply Theme Msg"><path codeLine="13" d="M99,109.37 C99,126.77 99,146.7 99,163.77 " fill="none" id="Actor Framework.lvlib:Message-backto-Appearance Actor.lvlib:Apply Theme Msg" style="stroke:#181818;stroke-width:1.0;"/><polygon fill="none" points="92,109.1,99,89.1,106,109.1,92,109.1" style="stroke:#181818;stroke-width:1.0;"/></g><!--MD5=[ba0ce06d71194a26e17c26270d9f4f24]
@startuml
set namespaceSeparator :
skinparam ClassBackgroundColor #FFFFFF
skinparam ClassBorderColor #555555
skinparam ClassFontColor #000000
skinparam ClassHeaderBackgroundColor #808080

skinparam top to bottom direction
class "Appearance Actor.lvlib:Apply Theme Msg" {
{static} {method} +Send Apply Theme()
{method} +Do()

}
"Actor Framework.lvlib:Message" <|- - "Appearance Actor.lvlib:Apply Theme Msg"



@enduml

PlantUML version 1.2022.5(Sat Apr 30 10:55:52 GMT 2022)
(GPL source distribution)
Java Runtime: OpenJDK Runtime Environment
JVM: OpenJDK 64-Bit Server VM
Default Encoding: UTF-8
Language: en
Country: US
--></g></svg>