<?xml version="1.0" encoding="UTF-8" standalone="no"?><svg xmlns="http://www.w3.org/2000/svg" xmlns:xlink="http://www.w3.org/1999/xlink" contentStyleType="text/css" height="388px" preserveAspectRatio="none" style="width:295px;height:388px;background:#FFFFFF;" version="1.1" viewBox="0 0 295 388" width="295px" zoomAndPan="magnify"><defs/><g><!--MD5=[c3bba3c91c036041d3a1ed31e588f991]
cluster Appearance Actor.lvlib--><g id="cluster_Appearance Actor.lvlib"><path d="M8.5,6 L164.5,6 A3.75,3.75 0 0 1 167,8.5 L174,28.7999 L285.5,28.7999 A2.5,2.5 0 0 1 288,31.2999 L288,378.5 A2.5,2.5 0 0 1 285.5,381 L8.5,381 A2.5,2.5 0 0 1 6,378.5 L6,8.5 A2.5,2.5 0 0 1 8.5,6 " style="stroke:#000000;stroke-width:1.5;fill:none;"/><line style="stroke:#000000;stroke-width:1.5;fill:none;" x1="6" x2="174" y1="28.7999" y2="28.7999"/><text fill="#000000" font-family="sans-serif" font-size="14" font-weight="bold" lengthAdjust="spacing" textLength="155" x="10" y="21.9999">Appearance Actor.lvlib</text></g><!--MD5=[ba6fb121bd8a99d615b1e43df88f120e]
class Appearance Actor.lvlib:ini Theme--><g id="elem_Appearance Actor.lvlib:ini Theme"><rect codeLine="8" fill="#FFFFFF" height="215.9993" id="Appearance Actor.lvlib:ini Theme" rx="2.5" ry="2.5" style="stroke:#555555;stroke-width:0.5;" width="250" x="22" y="149"/><rect fill="#808080" height="32" rx="2.5" ry="2.5" style="stroke:#808080;stroke-width:0.5;" width="250" x="22" y="149"/><rect fill="#808080" height="2.5" style="stroke:#808080;stroke-width:0.5;" width="250" x="22" y="178.5"/><rect codeLine="8" fill="none" height="215.9993" id="Appearance Actor.lvlib:ini Theme" rx="2.5" ry="2.5" style="stroke:#555555;stroke-width:0.5;" width="250" x="22" y="149"/><ellipse cx="112.75" cy="165" fill="#ADD1B2" rx="11" ry="11" style="stroke:#181818;stroke-width:1.0;"/><path d="M112.1094,168.7813 Q112.9063,168.7813 113.4688,168.5938 Q114.0469,168.3906 114.2813,168.1719 Q114.5313,167.9375 114.7656,167.75 Q115.0156,167.5469 115.2344,167.5469 Q115.5781,167.5469 115.8281,167.8125 Q116.0938,168.0625 116.0938,168.3906 Q116.0938,169.125 114.9219,169.8125 Q113.7656,170.4844 112.0625,170.4844 Q109.9063,170.4844 108.4844,169.2188 Q107.0625,167.9531 107.0625,166.0156 L107.0625,164.8906 Q107.0625,162.8594 108.3906,161.4844 Q109.7188,160.0938 111.6875,160.0938 Q112.875,160.0938 114.0938,160.6719 L114.2656,160.75 Q114.5625,160.3438 114.9844,160.3438 Q115.4688,160.3438 115.6406,160.6406 Q115.8281,160.9219 115.8281,161.4688 L115.8281,162.8906 Q115.8281,164.0156 114.9844,164.0156 Q114.6719,164.0156 114.4688,163.8438 Q114.2813,163.6719 114.2344,163.5313 Q114.2031,163.375 114.1563,163.1094 Q114.0469,162.5938 113.5313,162.2813 Q113.0156,161.9688 112.5625,161.8906 Q112.125,161.7969 111.75,161.7969 Q110.4688,161.7969 109.6094,162.6719 Q108.7656,163.5469 108.7656,164.8906 L108.7656,165.9844 Q108.7656,167.2656 109.6719,168.0313 Q110.5781,168.7813 112.1094,168.7813 Z " fill="#000000"/><text fill="#000000" font-family="sans-serif" font-size="14" lengthAdjust="spacing" textLength="60" x="133.25" y="170.6">ini Theme</text><line style="stroke:#555555;stroke-width:0.5;" x1="23" x2="271" y1="181" y2="181"/><rect fill="none" height="6" style="stroke:#C82930;stroke-width:1.0;" width="6" x="30" y="189"/><text fill="#000000" font-family="sans-serif" font-size="14" lengthAdjust="spacing" textLength="143" x="42" y="198.9999">ini Config Ref : NoType</text><line style="stroke:#555555;stroke-width:0.5;" x1="23" x2="271" y1="205.7999" y2="205.7999"/><ellipse cx="33" cy="216.7999" fill="#84BE84" rx="3" ry="3" style="stroke:#038048;stroke-width:1.0;"/><text fill="#000000" font-family="sans-serif" font-size="14" lengthAdjust="spacing" textLength="224" x="42" y="223.7999">Apply Light-Dark Controls Visibility()</text><ellipse cx="33" cy="233.5999" fill="#84BE84" rx="3" ry="3" style="stroke:#038048;stroke-width:1.0;"/><text fill="#000000" font-family="sans-serif" font-size="14" lengthAdjust="spacing" textLength="200" x="42" y="240.5998">Apply Theme To ActionButtons()</text><ellipse cx="33" cy="250.3998" fill="#84BE84" rx="3" ry="3" style="stroke:#038048;stroke-width:1.0;"/><text fill="#000000" font-family="sans-serif" font-size="14" lengthAdjust="spacing" textLength="189" x="42" y="257.3997">Apply Theme To CloseButton()</text><ellipse cx="33" cy="267.1997" fill="#84BE84" rx="3" ry="3" style="stroke:#038048;stroke-width:1.0;"/><text fill="#000000" font-family="sans-serif" font-size="14" lengthAdjust="spacing" textLength="147" x="42" y="274.1996">Apply Theme To Pane()</text><ellipse cx="33" cy="283.9996" fill="#84BE84" rx="3" ry="3" style="stroke:#038048;stroke-width:1.0;"/><text fill="#000000" font-family="sans-serif" font-size="14" lengthAdjust="spacing" textLength="158" x="42" y="290.9996">Apply Theme To Splitter()</text><ellipse cx="33" cy="300.7996" fill="#84BE84" rx="3" ry="3" style="stroke:#038048;stroke-width:1.0;"/><text fill="#000000" font-family="sans-serif" font-size="14" lengthAdjust="spacing" textLength="141" x="42" y="307.7995">Apply Theme To Title()</text><ellipse cx="33" cy="317.5995" fill="#84BE84" rx="3" ry="3" style="stroke:#038048;stroke-width:1.0;"/><text fill="#000000" font-family="sans-serif" font-size="14" lengthAdjust="spacing" textLength="87" x="42" y="324.5994">Load Theme()</text><ellipse cx="33" cy="334.3994" fill="#84BE84" rx="3" ry="3" style="stroke:#038048;stroke-width:1.0;"/><text fill="#000000" font-family="sans-serif" font-size="14" lengthAdjust="spacing" textLength="100" x="42" y="341.3994">Unload Theme()</text><ellipse cx="33" cy="351.1993" fill="#84BE84" rx="3" ry="3" style="stroke:#038048;stroke-width:1.0;"/><text fill="#000000" font-family="sans-serif" font-size="14" lengthAdjust="spacing" textLength="105" x="42" y="358.1993">Get Theme Info()</text></g><!--MD5=[eb37ef1cacab0443550a818eb2713915]
class Appearance Actor.lvlib:Generic Theme--><g id="elem_Appearance Actor.lvlib:Generic Theme"><rect fill="#FFFFFF" height="48" id="Appearance Actor.lvlib:Generic Theme" rx="2.5" ry="2.5" style="stroke:#555555;stroke-width:0.5;" width="126" x="84" y="41"/><rect fill="#808080" height="32" rx="2.5" ry="2.5" style="stroke:#808080;stroke-width:0.5;" width="126" x="84" y="41"/><rect fill="#808080" height="2.5" style="stroke:#808080;stroke-width:0.5;" width="126" x="84" y="70.5"/><rect fill="none" height="48" id="Appearance Actor.lvlib:Generic Theme" rx="2.5" ry="2.5" style="stroke:#555555;stroke-width:0.5;" width="126" x="84" y="41"/><ellipse cx="99" cy="57" fill="#ADD1B2" rx="11" ry="11" style="stroke:#181818;stroke-width:1.0;"/><path d="M98.3594,60.7813 Q99.1563,60.7813 99.7188,60.5938 Q100.2969,60.3906 100.5313,60.1719 Q100.7813,59.9375 101.0156,59.75 Q101.2656,59.5469 101.4844,59.5469 Q101.8281,59.5469 102.0781,59.8125 Q102.3438,60.0625 102.3438,60.3906 Q102.3438,61.125 101.1719,61.8125 Q100.0156,62.4844 98.3125,62.4844 Q96.1563,62.4844 94.7344,61.2188 Q93.3125,59.9531 93.3125,58.0156 L93.3125,56.8906 Q93.3125,54.8594 94.6406,53.4844 Q95.9688,52.0938 97.9375,52.0938 Q99.125,52.0938 100.3438,52.6719 L100.5156,52.75 Q100.8125,52.3438 101.2344,52.3438 Q101.7188,52.3438 101.8906,52.6406 Q102.0781,52.9219 102.0781,53.4688 L102.0781,54.8906 Q102.0781,56.0156 101.2344,56.0156 Q100.9219,56.0156 100.7188,55.8438 Q100.5313,55.6719 100.4844,55.5313 Q100.4531,55.375 100.4063,55.1094 Q100.2969,54.5938 99.7813,54.2813 Q99.2656,53.9688 98.8125,53.8906 Q98.375,53.7969 98,53.7969 Q96.7188,53.7969 95.8594,54.6719 Q95.0156,55.5469 95.0156,56.8906 L95.0156,57.9844 Q95.0156,59.2656 95.9219,60.0313 Q96.8281,60.7813 98.3594,60.7813 Z " fill="#000000"/><text fill="#000000" font-family="sans-serif" font-size="14" lengthAdjust="spacing" textLength="94" x="113" y="62.6">Generic Theme</text><line style="stroke:#555555;stroke-width:0.5;" x1="85" x2="209" y1="73" y2="73"/><line style="stroke:#555555;stroke-width:0.5;" x1="85" x2="209" y1="81" y2="81"/></g><!--MD5=[a89a9f0172e1bd43a99f7e7f216b01ef]
reverse link Appearance Actor.lvlib:Generic Theme to Appearance Actor.lvlib:ini Theme--><g id="link_Appearance Actor.lvlib:Generic Theme_Appearance Actor.lvlib:ini Theme"><path codeLine="21" d="M147,109.43 C147,121.36 147,134.86 147,148.71 " fill="none" id="Appearance Actor.lvlib:Generic Theme-backto-Appearance Actor.lvlib:ini Theme" style="stroke:#181818;stroke-width:1.0;"/><polygon fill="none" points="140,109.3,147,89.3,154,109.3,140,109.3" style="stroke:#181818;stroke-width:1.0;"/></g><!--MD5=[42ba8a2fd84b46513f69070c2ff5cfbd]
@startuml
set namespaceSeparator :
skinparam ClassBackgroundColor #FFFFFF
skinparam ClassBorderColor #555555
skinparam ClassFontColor #000000
skinparam ClassHeaderBackgroundColor #808080

skinparam top to bottom direction
class "Appearance Actor.lvlib:ini Theme" {
{field} -ini Config Ref : NoType
{method} +Apply Light-Dark Controls Visibility()
{method} +Apply Theme To ActionButtons()
{method} +Apply Theme To CloseButton()
{method} +Apply Theme To Pane()
{method} +Apply Theme To Splitter()
{method} +Apply Theme To Title()
{method} +Load Theme()
{method} +Unload Theme()
{method} +Get Theme Info()

}
"Appearance Actor.lvlib:Generic Theme" <|- - "Appearance Actor.lvlib:ini Theme"



@enduml

PlantUML version 1.2022.5(Sat Apr 30 10:55:52 GMT 2022)
(GPL source distribution)
Java Runtime: OpenJDK Runtime Environment
JVM: OpenJDK 64-Bit Server VM
Default Encoding: UTF-8
Language: en
Country: US
--></g></svg>