<?xml version="1.0" encoding="UTF-8" standalone="no"?><svg xmlns="http://www.w3.org/2000/svg" xmlns:xlink="http://www.w3.org/1999/xlink" contentStyleType="text/css" height="763px" preserveAspectRatio="none" style="width:2015px;height:763px;background:#FFFFFF;" version="1.1" viewBox="0 0 2015 763" width="2015px" zoomAndPan="magnify"><defs/><g><!--MD5=[c3bba3c91c036041d3a1ed31e588f991]
cluster Appearance Actor.lvlib--><g id="cluster_Appearance Actor.lvlib"><path d="M8.5,129 L164.5,129 A3.75,3.75 0 0 1 167,131.5 L174,151.7999 L1777.5,151.7999 A2.5,2.5 0 0 1 1780,154.2999 L1780,753.5 A2.5,2.5 0 0 1 1777.5,756 L8.5,756 A2.5,2.5 0 0 1 6,753.5 L6,131.5 A2.5,2.5 0 0 1 8.5,129 " style="stroke:#000000;stroke-width:1.5;fill:none;"/><line style="stroke:#000000;stroke-width:1.5;fill:none;" x1="6" x2="174" y1="151.7999" y2="151.7999"/><text fill="#000000" font-family="sans-serif" font-size="14" font-weight="bold" lengthAdjust="spacing" textLength="155" x="10" y="144.9999">Appearance Actor.lvlib</text></g><!--MD5=[4682a97c6ce0bfcadfccb11b1ed944c5]
cluster Actor Framework.lvlib--><g id="cluster_Actor Framework.lvlib"><path d="M851.5,6 L1001.5,6 A3.75,3.75 0 0 1 1004,8.5 L1011,28.7999 L1011.5,28.7999 A2.5,2.5 0 0 1 1014,31.2999 L1014,102.5 A2.5,2.5 0 0 1 1011.5,105 L851.5,105 A2.5,2.5 0 0 1 849,102.5 L849,8.5 A2.5,2.5 0 0 1 851.5,6 " style="stroke:#000000;stroke-width:1.5;fill:none;"/><line style="stroke:#000000;stroke-width:1.5;fill:none;" x1="849" x2="1011" y1="28.7999" y2="28.7999"/><text fill="#000000" font-family="sans-serif" font-size="14" font-weight="bold" lengthAdjust="spacing" textLength="149" x="853" y="21.9999">Actor Framework.lvlib</text></g><!--MD5=[eb79118e7c2849c52d4edd7dce9ad818]
cluster Panel Actor.lvlib--><g id="cluster_Panel Actor.lvlib"><path d="M1530.5,6 L1642.5,6 A3.75,3.75 0 0 1 1645,8.5 L1652,28.7999 L1661.5,28.7999 A2.5,2.5 0 0 1 1664,31.2999 L1664,102.5 A2.5,2.5 0 0 1 1661.5,105 L1530.5,105 A2.5,2.5 0 0 1 1528,102.5 L1528,8.5 A2.5,2.5 0 0 1 1530.5,6 " style="stroke:#000000;stroke-width:1.5;fill:none;"/><line style="stroke:#000000;stroke-width:1.5;fill:none;" x1="1528" x2="1652" y1="28.7999" y2="28.7999"/><text fill="#000000" font-family="sans-serif" font-size="14" font-weight="bold" lengthAdjust="spacing" textLength="111" x="1532" y="21.9999">Panel Actor.lvlib</text></g><!--MD5=[149ddbbbe74e4f9e12942c9fdbd48f51]
cluster Root Panel.lvlib--><g id="cluster_Root Panel.lvlib"><path d="M1806.5,556 L1914.5,556 A3.75,3.75 0 0 1 1917,558.5 L1924,578.7999 L2005.5,578.7999 A2.5,2.5 0 0 1 2008,581.2999 L2008,686.5 A2.5,2.5 0 0 1 2005.5,689 L1806.5,689 A2.5,2.5 0 0 1 1804,686.5 L1804,558.5 A2.5,2.5 0 0 1 1806.5,556 " style="stroke:#000000;stroke-width:1.5;fill:none;"/><line style="stroke:#000000;stroke-width:1.5;fill:none;" x1="1804" x2="1924" y1="578.7999" y2="578.7999"/><text fill="#000000" font-family="sans-serif" font-size="14" font-weight="bold" lengthAdjust="spacing" textLength="107" x="1808" y="571.9999">Root Panel.lvlib</text></g><!--MD5=[2d39246e44d174bd688017c602593eed]
class Appearance Actor.lvlib:Apply Theme Msg--><g id="elem_Appearance Actor.lvlib:Apply Theme Msg"><rect codeLine="8" fill="#FFFFFF" height="81.5999" id="Appearance Actor.lvlib:Apply Theme Msg" rx="2.5" ry="2.5" style="stroke:#555555;stroke-width:0.5;" width="153" x="964.5" y="273"/><rect fill="#808080" height="32" rx="2.5" ry="2.5" style="stroke:#808080;stroke-width:0.5;" width="153" x="964.5" y="273"/><rect fill="#808080" height="2.5" style="stroke:#808080;stroke-width:0.5;" width="153" x="964.5" y="302.5"/><rect codeLine="8" fill="none" height="81.5999" id="Appearance Actor.lvlib:Apply Theme Msg" rx="2.5" ry="2.5" style="stroke:#555555;stroke-width:0.5;" width="153" x="964.5" y="273"/><ellipse cx="983.55" cy="289" fill="#ADD1B2" rx="11" ry="11" style="stroke:#181818;stroke-width:1.0;"/><path d="M982.9094,292.7813 Q983.7063,292.7813 984.2688,292.5938 Q984.8469,292.3906 985.0813,292.1719 Q985.3313,291.9375 985.5656,291.75 Q985.8156,291.5469 986.0344,291.5469 Q986.3781,291.5469 986.6281,291.8125 Q986.8938,292.0625 986.8938,292.3906 Q986.8938,293.125 985.7219,293.8125 Q984.5656,294.4844 982.8625,294.4844 Q980.7063,294.4844 979.2844,293.2188 Q977.8625,291.9531 977.8625,290.0156 L977.8625,288.8906 Q977.8625,286.8594 979.1906,285.4844 Q980.5188,284.0938 982.4875,284.0938 Q983.675,284.0938 984.8938,284.6719 L985.0656,284.75 Q985.3625,284.3438 985.7844,284.3438 Q986.2688,284.3438 986.4406,284.6406 Q986.6281,284.9219 986.6281,285.4688 L986.6281,286.8906 Q986.6281,288.0156 985.7844,288.0156 Q985.4719,288.0156 985.2688,287.8438 Q985.0813,287.6719 985.0344,287.5313 Q985.0031,287.375 984.9563,287.1094 Q984.8469,286.5938 984.3313,286.2813 Q983.8156,285.9688 983.3625,285.8906 Q982.925,285.7969 982.55,285.7969 Q981.2688,285.7969 980.4094,286.6719 Q979.5656,287.5469 979.5656,288.8906 L979.5656,289.9844 Q979.5656,291.2656 980.4719,292.0313 Q981.3781,292.7813 982.9094,292.7813 Z " fill="#000000"/><text fill="#000000" font-family="sans-serif" font-size="14" lengthAdjust="spacing" textLength="112" x="998.45" y="294.6">Apply Theme Msg</text><line style="stroke:#555555;stroke-width:0.5;" x1="965.5" x2="1116.5" y1="305" y2="305"/><line style="stroke:#555555;stroke-width:0.5;" x1="965.5" x2="1116.5" y1="313" y2="313"/><ellipse cx="975.5" cy="324" fill="#84BE84" rx="3" ry="3" style="stroke:#038048;stroke-width:1.0;"/><text fill="#000000" font-family="sans-serif" font-size="14" lengthAdjust="spacing" text-decoration="underline" textLength="127" x="984.5" y="330.9999">Send Apply Theme()</text><ellipse cx="975.5" cy="340.7999" fill="#84BE84" rx="3" ry="3" style="stroke:#038048;stroke-width:1.0;"/><text fill="#000000" font-family="sans-serif" font-size="14" lengthAdjust="spacing" textLength="27" x="984.5" y="347.7999">Do()</text></g><!--MD5=[530b21ce2c8f635c6c2215b06e8dfee5]
class Appearance Actor.lvlib:Load Theme-Root Only Msg--><g id="elem_Appearance Actor.lvlib:Load Theme-Root Only Msg"><rect codeLine="16" fill="#FFFFFF" height="98.3998" id="Appearance Actor.lvlib:Load Theme-Root Only Msg" rx="2.5" ry="2.5" style="stroke:#555555;stroke-width:0.5;" width="215" x="714.5" y="265"/><rect fill="#808080" height="32" rx="2.5" ry="2.5" style="stroke:#808080;stroke-width:0.5;" width="215" x="714.5" y="265"/><rect fill="#808080" height="2.5" style="stroke:#808080;stroke-width:0.5;" width="215" x="714.5" y="294.5"/><rect codeLine="16" fill="none" height="98.3998" id="Appearance Actor.lvlib:Load Theme-Root Only Msg" rx="2.5" ry="2.5" style="stroke:#555555;stroke-width:0.5;" width="215" x="714.5" y="265"/><ellipse cx="733.55" cy="281" fill="#ADD1B2" rx="11" ry="11" style="stroke:#181818;stroke-width:1.0;"/><path d="M732.9094,284.7813 Q733.7063,284.7813 734.2688,284.5938 Q734.8469,284.3906 735.0813,284.1719 Q735.3313,283.9375 735.5656,283.75 Q735.8156,283.5469 736.0344,283.5469 Q736.3781,283.5469 736.6281,283.8125 Q736.8938,284.0625 736.8938,284.3906 Q736.8938,285.125 735.7219,285.8125 Q734.5656,286.4844 732.8625,286.4844 Q730.7063,286.4844 729.2844,285.2188 Q727.8625,283.9531 727.8625,282.0156 L727.8625,280.8906 Q727.8625,278.8594 729.1906,277.4844 Q730.5188,276.0938 732.4875,276.0938 Q733.675,276.0938 734.8938,276.6719 L735.0656,276.75 Q735.3625,276.3438 735.7844,276.3438 Q736.2688,276.3438 736.4406,276.6406 Q736.6281,276.9219 736.6281,277.4688 L736.6281,278.8906 Q736.6281,280.0156 735.7844,280.0156 Q735.4719,280.0156 735.2688,279.8438 Q735.0813,279.6719 735.0344,279.5313 Q735.0031,279.375 734.9563,279.1094 Q734.8469,278.5938 734.3313,278.2813 Q733.8156,277.9688 733.3625,277.8906 Q732.925,277.7969 732.55,277.7969 Q731.2688,277.7969 730.4094,278.6719 Q729.5656,279.5469 729.5656,280.8906 L729.5656,281.9844 Q729.5656,283.2656 730.4719,284.0313 Q731.3781,284.7813 732.9094,284.7813 Z " fill="#000000"/><text fill="#000000" font-family="sans-serif" font-size="14" lengthAdjust="spacing" textLength="174" x="748.45" y="286.6">Load Theme-Root Only Msg</text><line style="stroke:#555555;stroke-width:0.5;" x1="715.5" x2="928.5" y1="297" y2="297"/><rect fill="none" height="6" style="stroke:#C82930;stroke-width:1.0;" width="6" x="722.5" y="305"/><text fill="#000000" font-family="sans-serif" font-size="14" lengthAdjust="spacing" textLength="141" x="734.5" y="314.9999">Theme File Path : Path</text><line style="stroke:#555555;stroke-width:0.5;" x1="715.5" x2="928.5" y1="321.7999" y2="321.7999"/><ellipse cx="725.5" cy="332.7999" fill="#84BE84" rx="3" ry="3" style="stroke:#038048;stroke-width:1.0;"/><text fill="#000000" font-family="sans-serif" font-size="14" lengthAdjust="spacing" text-decoration="underline" textLength="189" x="734.5" y="339.7999">Send Load Theme-Root Only()</text><ellipse cx="725.5" cy="349.5999" fill="#84BE84" rx="3" ry="3" style="stroke:#038048;stroke-width:1.0;"/><text fill="#000000" font-family="sans-serif" font-size="14" lengthAdjust="spacing" textLength="27" x="734.5" y="356.5998">Do()</text></g><!--MD5=[e9ebd02fafe66219285167b7ff75d23b]
class Appearance Actor.lvlib:Propagate Theme To Nested Appearance Actors Msg--><g id="elem_Appearance Actor.lvlib:Propagate Theme To Nested Appearance Actors Msg"><rect codeLine="25" fill="#FFFFFF" height="81.5999" id="Appearance Actor.lvlib:Propagate Theme To Nested Appearance Actors Msg" rx="2.5" ry="2.5" style="stroke:#555555;stroke-width:0.5;" width="371" x="22.5" y="273"/><rect fill="#808080" height="32" rx="2.5" ry="2.5" style="stroke:#808080;stroke-width:0.5;" width="371" x="22.5" y="273"/><rect fill="#808080" height="2.5" style="stroke:#808080;stroke-width:0.5;" width="371" x="22.5" y="302.5"/><rect codeLine="25" fill="none" height="81.5999" id="Appearance Actor.lvlib:Propagate Theme To Nested Appearance Actors Msg" rx="2.5" ry="2.5" style="stroke:#555555;stroke-width:0.5;" width="371" x="22.5" y="273"/><ellipse cx="41.55" cy="289" fill="#ADD1B2" rx="11" ry="11" style="stroke:#181818;stroke-width:1.0;"/><path d="M40.9094,292.7813 Q41.7063,292.7813 42.2688,292.5938 Q42.8469,292.3906 43.0813,292.1719 Q43.3313,291.9375 43.5656,291.75 Q43.8156,291.5469 44.0344,291.5469 Q44.3781,291.5469 44.6281,291.8125 Q44.8938,292.0625 44.8938,292.3906 Q44.8938,293.125 43.7219,293.8125 Q42.5656,294.4844 40.8625,294.4844 Q38.7063,294.4844 37.2844,293.2188 Q35.8625,291.9531 35.8625,290.0156 L35.8625,288.8906 Q35.8625,286.8594 37.1906,285.4844 Q38.5188,284.0938 40.4875,284.0938 Q41.675,284.0938 42.8938,284.6719 L43.0656,284.75 Q43.3625,284.3438 43.7844,284.3438 Q44.2688,284.3438 44.4406,284.6406 Q44.6281,284.9219 44.6281,285.4688 L44.6281,286.8906 Q44.6281,288.0156 43.7844,288.0156 Q43.4719,288.0156 43.2688,287.8438 Q43.0813,287.6719 43.0344,287.5313 Q43.0031,287.375 42.9563,287.1094 Q42.8469,286.5938 42.3313,286.2813 Q41.8156,285.9688 41.3625,285.8906 Q40.925,285.7969 40.55,285.7969 Q39.2688,285.7969 38.4094,286.6719 Q37.5656,287.5469 37.5656,288.8906 L37.5656,289.9844 Q37.5656,291.2656 38.4719,292.0313 Q39.3781,292.7813 40.9094,292.7813 Z " fill="#000000"/><text fill="#000000" font-family="sans-serif" font-size="14" lengthAdjust="spacing" textLength="330" x="56.45" y="294.6">Propagate Theme To Nested Appearance Actors Msg</text><line style="stroke:#555555;stroke-width:0.5;" x1="23.5" x2="392.5" y1="305" y2="305"/><line style="stroke:#555555;stroke-width:0.5;" x1="23.5" x2="392.5" y1="313" y2="313"/><ellipse cx="33.5" cy="324" fill="#84BE84" rx="3" ry="3" style="stroke:#038048;stroke-width:1.0;"/><text fill="#000000" font-family="sans-serif" font-size="14" lengthAdjust="spacing" text-decoration="underline" textLength="345" x="42.5" y="330.9999">Send Propagate Theme To Nested Appearance Actors()</text><ellipse cx="33.5" cy="340.7999" fill="#84BE84" rx="3" ry="3" style="stroke:#038048;stroke-width:1.0;"/><text fill="#000000" font-family="sans-serif" font-size="14" lengthAdjust="spacing" textLength="27" x="42.5" y="347.7999">Do()</text></g><!--MD5=[e3a867514fce195ea4b33ce88a235c4a]
class Appearance Actor.lvlib:Recieve Theme From Caller Msg--><g id="elem_Appearance Actor.lvlib:Recieve Theme From Caller Msg"><rect codeLine="33" fill="#FFFFFF" height="98.3998" id="Appearance Actor.lvlib:Recieve Theme From Caller Msg" rx="2.5" ry="2.5" style="stroke:#555555;stroke-width:0.5;" width="241" x="1152.5" y="265"/><rect fill="#808080" height="32" rx="2.5" ry="2.5" style="stroke:#808080;stroke-width:0.5;" width="241" x="1152.5" y="265"/><rect fill="#808080" height="2.5" style="stroke:#808080;stroke-width:0.5;" width="241" x="1152.5" y="294.5"/><rect codeLine="33" fill="none" height="98.3998" id="Appearance Actor.lvlib:Recieve Theme From Caller Msg" rx="2.5" ry="2.5" style="stroke:#555555;stroke-width:0.5;" width="241" x="1152.5" y="265"/><ellipse cx="1171.55" cy="281" fill="#ADD1B2" rx="11" ry="11" style="stroke:#181818;stroke-width:1.0;"/><path d="M1170.9094,284.7813 Q1171.7063,284.7813 1172.2688,284.5938 Q1172.8469,284.3906 1173.0813,284.1719 Q1173.3313,283.9375 1173.5656,283.75 Q1173.8156,283.5469 1174.0344,283.5469 Q1174.3781,283.5469 1174.6281,283.8125 Q1174.8938,284.0625 1174.8938,284.3906 Q1174.8938,285.125 1173.7219,285.8125 Q1172.5656,286.4844 1170.8625,286.4844 Q1168.7063,286.4844 1167.2844,285.2188 Q1165.8625,283.9531 1165.8625,282.0156 L1165.8625,280.8906 Q1165.8625,278.8594 1167.1906,277.4844 Q1168.5188,276.0938 1170.4875,276.0938 Q1171.675,276.0938 1172.8938,276.6719 L1173.0656,276.75 Q1173.3625,276.3438 1173.7844,276.3438 Q1174.2688,276.3438 1174.4406,276.6406 Q1174.6281,276.9219 1174.6281,277.4688 L1174.6281,278.8906 Q1174.6281,280.0156 1173.7844,280.0156 Q1173.4719,280.0156 1173.2688,279.8438 Q1173.0813,279.6719 1173.0344,279.5313 Q1173.0031,279.375 1172.9563,279.1094 Q1172.8469,278.5938 1172.3313,278.2813 Q1171.8156,277.9688 1171.3625,277.8906 Q1170.925,277.7969 1170.55,277.7969 Q1169.2688,277.7969 1168.4094,278.6719 Q1167.5656,279.5469 1167.5656,280.8906 L1167.5656,281.9844 Q1167.5656,283.2656 1168.4719,284.0313 Q1169.3781,284.7813 1170.9094,284.7813 Z " fill="#000000"/><text fill="#000000" font-family="sans-serif" font-size="14" lengthAdjust="spacing" textLength="200" x="1186.45" y="286.6">Recieve Theme From Caller Msg</text><line style="stroke:#555555;stroke-width:0.5;" x1="1153.5" x2="1392.5" y1="297" y2="297"/><rect fill="none" height="6" style="stroke:#C82930;stroke-width:1.0;" width="6" x="1160.5" y="305"/><text fill="#000000" font-family="sans-serif" font-size="14" lengthAdjust="spacing" textLength="135" x="1172.5" y="314.9999">Theme DVR : NoType</text><line style="stroke:#555555;stroke-width:0.5;" x1="1153.5" x2="1392.5" y1="321.7999" y2="321.7999"/><ellipse cx="1163.5" cy="332.7999" fill="#84BE84" rx="3" ry="3" style="stroke:#038048;stroke-width:1.0;"/><text fill="#000000" font-family="sans-serif" font-size="14" lengthAdjust="spacing" text-decoration="underline" textLength="215" x="1172.5" y="339.7999">Send Recieve Theme From Caller()</text><ellipse cx="1163.5" cy="349.5999" fill="#84BE84" rx="3" ry="3" style="stroke:#038048;stroke-width:1.0;"/><text fill="#000000" font-family="sans-serif" font-size="14" lengthAdjust="spacing" textLength="27" x="1172.5" y="356.5998">Do()</text></g><!--MD5=[eb37ef1cacab0443550a818eb2713915]
class Appearance Actor.lvlib:Generic Theme--><g id="elem_Appearance Actor.lvlib:Generic Theme"><rect codeLine="42" fill="#FFFFFF" height="299.9989" id="Appearance Actor.lvlib:Generic Theme" rx="2.5" ry="2.5" style="stroke:#555555;stroke-width:0.5;" width="250" x="429" y="164"/><rect fill="#808080" height="32" rx="2.5" ry="2.5" style="stroke:#808080;stroke-width:0.5;" width="250" x="429" y="164"/><rect fill="#808080" height="2.5" style="stroke:#808080;stroke-width:0.5;" width="250" x="429" y="193.5"/><rect codeLine="42" fill="none" height="299.9989" id="Appearance Actor.lvlib:Generic Theme" rx="2.5" ry="2.5" style="stroke:#555555;stroke-width:0.5;" width="250" x="429" y="164"/><ellipse cx="502.75" cy="180" fill="#ADD1B2" rx="11" ry="11" style="stroke:#181818;stroke-width:1.0;"/><path d="M502.1094,183.7813 Q502.9063,183.7813 503.4688,183.5938 Q504.0469,183.3906 504.2813,183.1719 Q504.5313,182.9375 504.7656,182.75 Q505.0156,182.5469 505.2344,182.5469 Q505.5781,182.5469 505.8281,182.8125 Q506.0938,183.0625 506.0938,183.3906 Q506.0938,184.125 504.9219,184.8125 Q503.7656,185.4844 502.0625,185.4844 Q499.9063,185.4844 498.4844,184.2188 Q497.0625,182.9531 497.0625,181.0156 L497.0625,179.8906 Q497.0625,177.8594 498.3906,176.4844 Q499.7188,175.0938 501.6875,175.0938 Q502.875,175.0938 504.0938,175.6719 L504.2656,175.75 Q504.5625,175.3438 504.9844,175.3438 Q505.4688,175.3438 505.6406,175.6406 Q505.8281,175.9219 505.8281,176.4688 L505.8281,177.8906 Q505.8281,179.0156 504.9844,179.0156 Q504.6719,179.0156 504.4688,178.8438 Q504.2813,178.6719 504.2344,178.5313 Q504.2031,178.375 504.1563,178.1094 Q504.0469,177.5938 503.5313,177.2813 Q503.0156,176.9688 502.5625,176.8906 Q502.125,176.7969 501.75,176.7969 Q500.4688,176.7969 499.6094,177.6719 Q498.7656,178.5469 498.7656,179.8906 L498.7656,180.9844 Q498.7656,182.2656 499.6719,183.0313 Q500.5781,183.7813 502.1094,183.7813 Z " fill="#000000"/><text fill="#000000" font-family="sans-serif" font-size="14" lengthAdjust="spacing" textLength="94" x="523.25" y="185.6">Generic Theme</text><line style="stroke:#555555;stroke-width:0.5;" x1="430" x2="678" y1="196" y2="196"/><ellipse cx="440" cy="207" fill="none" rx="3" ry="3" style="stroke:#038048;stroke-width:1.0;"/><text fill="#000000" font-family="sans-serif" font-size="14" lengthAdjust="spacing" textLength="180" x="449" y="213.9999">A Theme is Loaded : Boolean</text><line style="stroke:#555555;stroke-width:0.5;" x1="430" x2="678" y1="220.7999" y2="220.7999"/><ellipse cx="440" cy="231.7999" fill="#84BE84" rx="3" ry="3" style="stroke:#038048;stroke-width:1.0;"/><text fill="#000000" font-family="sans-serif" font-size="14" lengthAdjust="spacing" text-decoration="underline" textLength="130" x="449" y="238.7999">Default Entry Value()</text><ellipse cx="440" cy="248.5999" fill="#84BE84" rx="3" ry="3" style="stroke:#038048;stroke-width:1.0;"/><text fill="#000000" font-family="sans-serif" font-size="14" lengthAdjust="spacing" text-decoration="underline" textLength="138" x="449" y="255.5998">Style String To Bools()</text><ellipse cx="440" cy="265.3998" fill="#84BE84" rx="3" ry="3" style="stroke:#038048;stroke-width:1.0;"/><text fill="#000000" font-family="sans-serif" font-size="14" lengthAdjust="spacing" text-decoration="underline" textLength="190" x="449" y="272.3997">Theme Entry Enum To String()</text><ellipse cx="440" cy="282.1997" fill="#84BE84" rx="3" ry="3" style="stroke:#038048;stroke-width:1.0;"/><text fill="#000000" font-family="sans-serif" font-size="14" lengthAdjust="spacing" text-decoration="underline" textLength="169" x="449" y="289.1996">U32 Color To Hexa String()</text><ellipse cx="440" cy="298.9996" fill="#84BE84" rx="3" ry="3" style="stroke:#038048;stroke-width:1.0;"/><text fill="#000000" font-family="sans-serif" font-size="14" lengthAdjust="spacing" text-decoration="underline" textLength="169" x="449" y="305.9996">Hexa String To U32 Color()</text><ellipse cx="440" cy="315.7996" fill="#84BE84" rx="3" ry="3" style="stroke:#038048;stroke-width:1.0;"/><text fill="#000000" font-family="sans-serif" font-size="14" lengthAdjust="spacing" textLength="224" x="449" y="322.7995">Apply Light-Dark Controls Visibility()</text><ellipse cx="440" cy="332.5995" fill="#84BE84" rx="3" ry="3" style="stroke:#038048;stroke-width:1.0;"/><text fill="#000000" font-family="sans-serif" font-size="14" lengthAdjust="spacing" textLength="200" x="449" y="339.5994">Apply Theme To ActionButtons()</text><ellipse cx="440" cy="349.3994" fill="#84BE84" rx="3" ry="3" style="stroke:#038048;stroke-width:1.0;"/><text fill="#000000" font-family="sans-serif" font-size="14" lengthAdjust="spacing" textLength="189" x="449" y="356.3994">Apply Theme To CloseButton()</text><ellipse cx="440" cy="366.1993" fill="#84BE84" rx="3" ry="3" style="stroke:#038048;stroke-width:1.0;"/><text fill="#000000" font-family="sans-serif" font-size="14" lengthAdjust="spacing" textLength="147" x="449" y="373.1993">Apply Theme To Pane()</text><ellipse cx="440" cy="382.9993" fill="#84BE84" rx="3" ry="3" style="stroke:#038048;stroke-width:1.0;"/><text fill="#000000" font-family="sans-serif" font-size="14" lengthAdjust="spacing" textLength="158" x="449" y="389.9992">Apply Theme To Splitter()</text><ellipse cx="440" cy="399.7992" fill="#84BE84" rx="3" ry="3" style="stroke:#038048;stroke-width:1.0;"/><text fill="#000000" font-family="sans-serif" font-size="14" lengthAdjust="spacing" textLength="141" x="449" y="406.7991">Apply Theme To Title()</text><ellipse cx="440" cy="416.5991" fill="#84BE84" rx="3" ry="3" style="stroke:#038048;stroke-width:1.0;"/><text fill="#000000" font-family="sans-serif" font-size="14" lengthAdjust="spacing" textLength="87" x="449" y="423.5991">Load Theme()</text><ellipse cx="440" cy="433.399" fill="#84BE84" rx="3" ry="3" style="stroke:#038048;stroke-width:1.0;"/><text fill="#000000" font-family="sans-serif" font-size="14" lengthAdjust="spacing" textLength="100" x="449" y="440.399">Unload Theme()</text><ellipse cx="440" cy="450.199" fill="#84BE84" rx="3" ry="3" style="stroke:#038048;stroke-width:1.0;"/><text fill="#000000" font-family="sans-serif" font-size="14" lengthAdjust="spacing" textLength="105" x="449" y="457.1989">Get Theme Info()</text></g><!--MD5=[ba6fb121bd8a99d615b1e43df88f120e]
class Appearance Actor.lvlib:ini Theme--><g id="elem_Appearance Actor.lvlib:ini Theme"><rect codeLine="62" fill="#FFFFFF" height="215.9993" id="Appearance Actor.lvlib:ini Theme" rx="2.5" ry="2.5" style="stroke:#555555;stroke-width:0.5;" width="250" x="429" y="524"/><rect fill="#808080" height="32" rx="2.5" ry="2.5" style="stroke:#808080;stroke-width:0.5;" width="250" x="429" y="524"/><rect fill="#808080" height="2.5" style="stroke:#808080;stroke-width:0.5;" width="250" x="429" y="553.5"/><rect codeLine="62" fill="none" height="215.9993" id="Appearance Actor.lvlib:ini Theme" rx="2.5" ry="2.5" style="stroke:#555555;stroke-width:0.5;" width="250" x="429" y="524"/><ellipse cx="519.75" cy="540" fill="#ADD1B2" rx="11" ry="11" style="stroke:#181818;stroke-width:1.0;"/><path d="M519.1094,543.7813 Q519.9063,543.7813 520.4688,543.5938 Q521.0469,543.3906 521.2813,543.1719 Q521.5313,542.9375 521.7656,542.75 Q522.0156,542.5469 522.2344,542.5469 Q522.5781,542.5469 522.8281,542.8125 Q523.0938,543.0625 523.0938,543.3906 Q523.0938,544.125 521.9219,544.8125 Q520.7656,545.4844 519.0625,545.4844 Q516.9063,545.4844 515.4844,544.2188 Q514.0625,542.9531 514.0625,541.0156 L514.0625,539.8906 Q514.0625,537.8594 515.3906,536.4844 Q516.7188,535.0938 518.6875,535.0938 Q519.875,535.0938 521.0938,535.6719 L521.2656,535.75 Q521.5625,535.3438 521.9844,535.3438 Q522.4688,535.3438 522.6406,535.6406 Q522.8281,535.9219 522.8281,536.4688 L522.8281,537.8906 Q522.8281,539.0156 521.9844,539.0156 Q521.6719,539.0156 521.4688,538.8438 Q521.2813,538.6719 521.2344,538.5313 Q521.2031,538.375 521.1563,538.1094 Q521.0469,537.5938 520.5313,537.2813 Q520.0156,536.9688 519.5625,536.8906 Q519.125,536.7969 518.75,536.7969 Q517.4688,536.7969 516.6094,537.6719 Q515.7656,538.5469 515.7656,539.8906 L515.7656,540.9844 Q515.7656,542.2656 516.6719,543.0313 Q517.5781,543.7813 519.1094,543.7813 Z " fill="#000000"/><text fill="#000000" font-family="sans-serif" font-size="14" lengthAdjust="spacing" textLength="60" x="540.25" y="545.6">ini Theme</text><line style="stroke:#555555;stroke-width:0.5;" x1="430" x2="678" y1="556" y2="556"/><rect fill="none" height="6" style="stroke:#C82930;stroke-width:1.0;" width="6" x="437" y="564"/><text fill="#000000" font-family="sans-serif" font-size="14" lengthAdjust="spacing" textLength="143" x="449" y="573.9999">ini Config Ref : NoType</text><line style="stroke:#555555;stroke-width:0.5;" x1="430" x2="678" y1="580.7999" y2="580.7999"/><ellipse cx="440" cy="591.7999" fill="#84BE84" rx="3" ry="3" style="stroke:#038048;stroke-width:1.0;"/><text fill="#000000" font-family="sans-serif" font-size="14" lengthAdjust="spacing" textLength="224" x="449" y="598.7999">Apply Light-Dark Controls Visibility()</text><ellipse cx="440" cy="608.5999" fill="#84BE84" rx="3" ry="3" style="stroke:#038048;stroke-width:1.0;"/><text fill="#000000" font-family="sans-serif" font-size="14" lengthAdjust="spacing" textLength="200" x="449" y="615.5998">Apply Theme To ActionButtons()</text><ellipse cx="440" cy="625.3998" fill="#84BE84" rx="3" ry="3" style="stroke:#038048;stroke-width:1.0;"/><text fill="#000000" font-family="sans-serif" font-size="14" lengthAdjust="spacing" textLength="189" x="449" y="632.3997">Apply Theme To CloseButton()</text><ellipse cx="440" cy="642.1997" fill="#84BE84" rx="3" ry="3" style="stroke:#038048;stroke-width:1.0;"/><text fill="#000000" font-family="sans-serif" font-size="14" lengthAdjust="spacing" textLength="147" x="449" y="649.1996">Apply Theme To Pane()</text><ellipse cx="440" cy="658.9996" fill="#84BE84" rx="3" ry="3" style="stroke:#038048;stroke-width:1.0;"/><text fill="#000000" font-family="sans-serif" font-size="14" lengthAdjust="spacing" textLength="158" x="449" y="665.9996">Apply Theme To Splitter()</text><ellipse cx="440" cy="675.7996" fill="#84BE84" rx="3" ry="3" style="stroke:#038048;stroke-width:1.0;"/><text fill="#000000" font-family="sans-serif" font-size="14" lengthAdjust="spacing" textLength="141" x="449" y="682.7995">Apply Theme To Title()</text><ellipse cx="440" cy="692.5995" fill="#84BE84" rx="3" ry="3" style="stroke:#038048;stroke-width:1.0;"/><text fill="#000000" font-family="sans-serif" font-size="14" lengthAdjust="spacing" textLength="87" x="449" y="699.5994">Load Theme()</text><ellipse cx="440" cy="709.3994" fill="#84BE84" rx="3" ry="3" style="stroke:#038048;stroke-width:1.0;"/><text fill="#000000" font-family="sans-serif" font-size="14" lengthAdjust="spacing" textLength="100" x="449" y="716.3994">Unload Theme()</text><ellipse cx="440" cy="726.1993" fill="#84BE84" rx="3" ry="3" style="stroke:#038048;stroke-width:1.0;"/><text fill="#000000" font-family="sans-serif" font-size="14" lengthAdjust="spacing" textLength="105" x="449" y="733.1993">Get Theme Info()</text></g><!--MD5=[5ad34a604fa31012c46bd54d8284e51d]
class Appearance Actor.lvlib:Appearance Actor--><g id="elem_Appearance Actor.lvlib:Appearance Actor"><rect codeLine="78" fill="#FFFFFF" height="199.1993" id="Appearance Actor.lvlib:Appearance Actor" rx="2.5" ry="2.5" style="stroke:#555555;stroke-width:0.5;" width="335" x="1428.5" y="214.5"/><rect fill="#808080" height="32" rx="2.5" ry="2.5" style="stroke:#808080;stroke-width:0.5;" width="335" x="1428.5" y="214.5"/><rect fill="#808080" height="2.5" style="stroke:#808080;stroke-width:0.5;" width="335" x="1428.5" y="244"/><rect codeLine="78" fill="none" height="199.1993" id="Appearance Actor.lvlib:Appearance Actor" rx="2.5" ry="2.5" style="stroke:#555555;stroke-width:0.5;" width="335" x="1428.5" y="214.5"/><ellipse cx="1536.25" cy="230.5" fill="#ADD1B2" rx="11" ry="11" style="stroke:#181818;stroke-width:1.0;"/><path d="M1535.6094,234.2813 Q1536.4063,234.2813 1536.9688,234.0938 Q1537.5469,233.8906 1537.7813,233.6719 Q1538.0313,233.4375 1538.2656,233.25 Q1538.5156,233.0469 1538.7344,233.0469 Q1539.0781,233.0469 1539.3281,233.3125 Q1539.5938,233.5625 1539.5938,233.8906 Q1539.5938,234.625 1538.4219,235.3125 Q1537.2656,235.9844 1535.5625,235.9844 Q1533.4063,235.9844 1531.9844,234.7188 Q1530.5625,233.4531 1530.5625,231.5156 L1530.5625,230.3906 Q1530.5625,228.3594 1531.8906,226.9844 Q1533.2188,225.5938 1535.1875,225.5938 Q1536.375,225.5938 1537.5938,226.1719 L1537.7656,226.25 Q1538.0625,225.8438 1538.4844,225.8438 Q1538.9688,225.8438 1539.1406,226.1406 Q1539.3281,226.4219 1539.3281,226.9688 L1539.3281,228.3906 Q1539.3281,229.5156 1538.4844,229.5156 Q1538.1719,229.5156 1537.9688,229.3438 Q1537.7813,229.1719 1537.7344,229.0313 Q1537.7031,228.875 1537.6563,228.6094 Q1537.5469,228.0938 1537.0313,227.7813 Q1536.5156,227.4688 1536.0625,227.3906 Q1535.625,227.2969 1535.25,227.2969 Q1533.9688,227.2969 1533.1094,228.1719 Q1532.2656,229.0469 1532.2656,230.3906 L1532.2656,231.4844 Q1532.2656,232.7656 1533.1719,233.5313 Q1534.0781,234.2813 1535.6094,234.2813 Z " fill="#000000"/><text fill="#000000" font-family="sans-serif" font-size="14" lengthAdjust="spacing" textLength="111" x="1556.75" y="236.1">Appearance Actor</text><line style="stroke:#555555;stroke-width:0.5;" x1="1429.5" x2="1762.5" y1="246.5" y2="246.5"/><ellipse cx="1439.5" cy="257.5" fill="none" rx="3" ry="3" style="stroke:#038048;stroke-width:1.0;"/><text fill="#000000" font-family="sans-serif" font-size="14" lengthAdjust="spacing" textLength="135" x="1448.5" y="264.4999">Theme DVR : NoType</text><rect fill="none" height="6" style="stroke:#C82930;stroke-width:1.0;" width="6" x="1436.5" y="271.2999"/><text fill="#000000" font-family="sans-serif" font-size="14" lengthAdjust="spacing" textLength="164" x="1448.5" y="281.2999">Panel References : Cluster</text><line style="stroke:#555555;stroke-width:0.5;" x1="1429.5" x2="1762.5" y1="288.0999" y2="288.0999"/><ellipse cx="1439.5" cy="299.0999" fill="#84BE84" rx="3" ry="3" style="stroke:#038048;stroke-width:1.0;"/><text fill="#000000" font-family="sans-serif" font-size="14" lengthAdjust="spacing" textLength="91" x="1448.5" y="306.0998">Apply Theme()</text><ellipse cx="1439.5" cy="315.8998" fill="#84BE84" rx="3" ry="3" style="stroke:#038048;stroke-width:1.0;"/><text fill="#000000" font-family="sans-serif" font-size="14" lengthAdjust="spacing" textLength="153" x="1448.5" y="322.8997">Load Theme-Root Only()</text><ellipse cx="1439.5" cy="332.6997" fill="#84BE84" rx="3" ry="3" style="stroke:#038048;stroke-width:1.0;"/><text fill="#000000" font-family="sans-serif" font-size="14" lengthAdjust="spacing" textLength="309" x="1448.5" y="339.6996">Propagate Theme To Nested Appearance Actors()</text><ellipse cx="1439.5" cy="349.4996" fill="#84BE84" rx="3" ry="3" style="stroke:#038048;stroke-width:1.0;"/><text fill="#000000" font-family="sans-serif" font-size="14" lengthAdjust="spacing" textLength="179" x="1448.5" y="356.4996">Recieve Theme From Caller()</text><polygon fill="#FFFF44" points="1439.5,361.2996,1443.5,365.2996,1439.5,369.2996,1435.5,365.2996" style="stroke:#B38D22;stroke-width:1.0;"/><text fill="#000000" font-family="sans-serif" font-size="14" lengthAdjust="spacing" textLength="105" x="1448.5" y="373.2995">Pre Launch Init()</text><polygon fill="#FFFF44" points="1439.5,378.0995,1443.5,382.0995,1439.5,386.0995,1435.5,382.0995" style="stroke:#B38D22;stroke-width:1.0;"/><text fill="#000000" font-family="sans-serif" font-size="14" lengthAdjust="spacing" textLength="71" x="1448.5" y="390.0994">Stop Core()</text><polygon fill="#FFFF44" points="1439.5,394.8994,1443.5,398.8994,1439.5,402.8994,1435.5,398.8994" style="stroke:#B38D22;stroke-width:1.0;"/><text fill="#000000" font-family="sans-serif" font-size="14" lengthAdjust="spacing" textLength="108" x="1448.5" y="406.8994">Substitute Actor()</text></g><!--MD5=[214c99f83f762f8ee15e0e75722647ab]
class Actor Framework.lvlib:Message--><g id="elem_Actor Framework.lvlib:Message"><rect fill="#FFFFFF" height="48" id="Actor Framework.lvlib:Message" rx="2.5" ry="2.5" style="stroke:#555555;stroke-width:0.5;" width="88" x="887" y="41"/><rect fill="#808080" height="32" rx="2.5" ry="2.5" style="stroke:#808080;stroke-width:0.5;" width="88" x="887" y="41"/><rect fill="#808080" height="2.5" style="stroke:#808080;stroke-width:0.5;" width="88" x="887" y="70.5"/><rect fill="none" height="48" id="Actor Framework.lvlib:Message" rx="2.5" ry="2.5" style="stroke:#555555;stroke-width:0.5;" width="88" x="887" y="41"/><ellipse cx="902" cy="57" fill="#ADD1B2" rx="11" ry="11" style="stroke:#181818;stroke-width:1.0;"/><path d="M901.3594,60.7813 Q902.1563,60.7813 902.7188,60.5938 Q903.2969,60.3906 903.5313,60.1719 Q903.7813,59.9375 904.0156,59.75 Q904.2656,59.5469 904.4844,59.5469 Q904.8281,59.5469 905.0781,59.8125 Q905.3438,60.0625 905.3438,60.3906 Q905.3438,61.125 904.1719,61.8125 Q903.0156,62.4844 901.3125,62.4844 Q899.1563,62.4844 897.7344,61.2188 Q896.3125,59.9531 896.3125,58.0156 L896.3125,56.8906 Q896.3125,54.8594 897.6406,53.4844 Q898.9688,52.0938 900.9375,52.0938 Q902.125,52.0938 903.3438,52.6719 L903.5156,52.75 Q903.8125,52.3438 904.2344,52.3438 Q904.7188,52.3438 904.8906,52.6406 Q905.0781,52.9219 905.0781,53.4688 L905.0781,54.8906 Q905.0781,56.0156 904.2344,56.0156 Q903.9219,56.0156 903.7188,55.8438 Q903.5313,55.6719 903.4844,55.5313 Q903.4531,55.375 903.4063,55.1094 Q903.2969,54.5938 902.7813,54.2813 Q902.2656,53.9688 901.8125,53.8906 Q901.375,53.7969 901,53.7969 Q899.7188,53.7969 898.8594,54.6719 Q898.0156,55.5469 898.0156,56.8906 L898.0156,57.9844 Q898.0156,59.2656 898.9219,60.0313 Q899.8281,60.7813 901.3594,60.7813 Z " fill="#000000"/><text fill="#000000" font-family="sans-serif" font-size="14" lengthAdjust="spacing" textLength="56" x="916" y="62.6">Message</text><line style="stroke:#555555;stroke-width:0.5;" x1="888" x2="974" y1="73" y2="73"/><line style="stroke:#555555;stroke-width:0.5;" x1="888" x2="974" y1="81" y2="81"/></g><!--MD5=[bf84cfc61a49d162cf2e28f3a7ad502a]
class Panel Actor.lvlib:Panel Actor--><g id="elem_Panel Actor.lvlib:Panel Actor"><rect fill="#FFFFFF" height="48" id="Panel Actor.lvlib:Panel Actor" rx="2.5" ry="2.5" style="stroke:#555555;stroke-width:0.5;" width="103" x="1544.5" y="41"/><rect fill="#808080" height="32" rx="2.5" ry="2.5" style="stroke:#808080;stroke-width:0.5;" width="103" x="1544.5" y="41"/><rect fill="#808080" height="2.5" style="stroke:#808080;stroke-width:0.5;" width="103" x="1544.5" y="70.5"/><rect fill="none" height="48" id="Panel Actor.lvlib:Panel Actor" rx="2.5" ry="2.5" style="stroke:#555555;stroke-width:0.5;" width="103" x="1544.5" y="41"/><ellipse cx="1559.5" cy="57" fill="#ADD1B2" rx="11" ry="11" style="stroke:#181818;stroke-width:1.0;"/><path d="M1558.8594,60.7813 Q1559.6563,60.7813 1560.2188,60.5938 Q1560.7969,60.3906 1561.0313,60.1719 Q1561.2813,59.9375 1561.5156,59.75 Q1561.7656,59.5469 1561.9844,59.5469 Q1562.3281,59.5469 1562.5781,59.8125 Q1562.8438,60.0625 1562.8438,60.3906 Q1562.8438,61.125 1561.6719,61.8125 Q1560.5156,62.4844 1558.8125,62.4844 Q1556.6563,62.4844 1555.2344,61.2188 Q1553.8125,59.9531 1553.8125,58.0156 L1553.8125,56.8906 Q1553.8125,54.8594 1555.1406,53.4844 Q1556.4688,52.0938 1558.4375,52.0938 Q1559.625,52.0938 1560.8438,52.6719 L1561.0156,52.75 Q1561.3125,52.3438 1561.7344,52.3438 Q1562.2188,52.3438 1562.3906,52.6406 Q1562.5781,52.9219 1562.5781,53.4688 L1562.5781,54.8906 Q1562.5781,56.0156 1561.7344,56.0156 Q1561.4219,56.0156 1561.2188,55.8438 Q1561.0313,55.6719 1560.9844,55.5313 Q1560.9531,55.375 1560.9063,55.1094 Q1560.7969,54.5938 1560.2813,54.2813 Q1559.7656,53.9688 1559.3125,53.8906 Q1558.875,53.7969 1558.5,53.7969 Q1557.2188,53.7969 1556.3594,54.6719 Q1555.5156,55.5469 1555.5156,56.8906 L1555.5156,57.9844 Q1555.5156,59.2656 1556.4219,60.0313 Q1557.3281,60.7813 1558.8594,60.7813 Z " fill="#000000"/><text fill="#000000" font-family="sans-serif" font-size="14" lengthAdjust="spacing" textLength="71" x="1573.5" y="62.6">Panel Actor</text><line style="stroke:#555555;stroke-width:0.5;" x1="1545.5" x2="1646.5" y1="73" y2="73"/><line style="stroke:#555555;stroke-width:0.5;" x1="1545.5" x2="1646.5" y1="81" y2="81"/></g><!--MD5=[3a428beac703bd1fbc6ec9ffc5dc5543]
class Root Panel.lvlib:Root Panel Actor--><g id="elem_Root Panel.lvlib:Root Panel Actor"><rect codeLine="93" fill="#FFFFFF" height="81.5999" id="Root Panel.lvlib:Root Panel Actor" rx="2.5" ry="2.5" style="stroke:#555555;stroke-width:0.5;" width="172" x="1820" y="591"/><rect fill="#808080" height="32" rx="2.5" ry="2.5" style="stroke:#808080;stroke-width:0.5;" width="172" x="1820" y="591"/><rect fill="#808080" height="2.5" style="stroke:#808080;stroke-width:0.5;" width="172" x="1820" y="620.5"/><rect codeLine="93" fill="none" height="81.5999" id="Root Panel.lvlib:Root Panel Actor" rx="2.5" ry="2.5" style="stroke:#555555;stroke-width:0.5;" width="172" x="1820" y="591"/><ellipse cx="1851.65" cy="607" fill="#ADD1B2" rx="11" ry="11" style="stroke:#181818;stroke-width:1.0;"/><path d="M1851.0094,610.7813 Q1851.8063,610.7813 1852.3688,610.5938 Q1852.9469,610.3906 1853.1813,610.1719 Q1853.4313,609.9375 1853.6656,609.75 Q1853.9156,609.5469 1854.1344,609.5469 Q1854.4781,609.5469 1854.7281,609.8125 Q1854.9938,610.0625 1854.9938,610.3906 Q1854.9938,611.125 1853.8219,611.8125 Q1852.6656,612.4844 1850.9625,612.4844 Q1848.8063,612.4844 1847.3844,611.2188 Q1845.9625,609.9531 1845.9625,608.0156 L1845.9625,606.8906 Q1845.9625,604.8594 1847.2906,603.4844 Q1848.6188,602.0938 1850.5875,602.0938 Q1851.775,602.0938 1852.9938,602.6719 L1853.1656,602.75 Q1853.4625,602.3438 1853.8844,602.3438 Q1854.3688,602.3438 1854.5406,602.6406 Q1854.7281,602.9219 1854.7281,603.4688 L1854.7281,604.8906 Q1854.7281,606.0156 1853.8844,606.0156 Q1853.5719,606.0156 1853.3688,605.8438 Q1853.1813,605.6719 1853.1344,605.5313 Q1853.1031,605.375 1853.0563,605.1094 Q1852.9469,604.5938 1852.4313,604.2813 Q1851.9156,603.9688 1851.4625,603.8906 Q1851.025,603.7969 1850.65,603.7969 Q1849.3688,603.7969 1848.5094,604.6719 Q1847.6656,605.5469 1847.6656,606.8906 L1847.6656,607.9844 Q1847.6656,609.2656 1848.5719,610.0313 Q1849.4781,610.7813 1851.0094,610.7813 Z " fill="#000000"/><text fill="#000000" font-family="sans-serif" font-size="14" lengthAdjust="spacing" textLength="103" x="1869.35" y="612.6">Root Panel Actor</text><line style="stroke:#555555;stroke-width:0.5;" x1="1821" x2="1991" y1="623" y2="623"/><rect fill="none" height="6" style="stroke:#C82930;stroke-width:1.0;" width="6" x="1828" y="631"/><text fill="#000000" font-family="sans-serif" font-size="14" lengthAdjust="spacing" textLength="146" x="1840" y="640.9999">FP References : Cluster</text><line style="stroke:#555555;stroke-width:0.5;" x1="1821" x2="1991" y1="647.7999" y2="647.7999"/><polygon fill="#FFFF44" points="1831,653.7999,1835,657.7999,1831,661.7999,1827,657.7999" style="stroke:#B38D22;stroke-width:1.0;"/><text fill="#000000" font-family="sans-serif" font-size="14" lengthAdjust="spacing" textLength="75" x="1840" y="665.7999">Actor Core()</text></g><!--MD5=[c706da2a400ea1a41e34b5cb896daeb3]
reverse link Actor Framework.lvlib:Message to Appearance Actor.lvlib:Apply Theme Msg--><g id="link_Actor Framework.lvlib:Message_Appearance Actor.lvlib:Apply Theme Msg"><path codeLine="13" d="M949.55,107.66 C970.03,153.63 1002.76,227.13 1023.01,272.6 " fill="none" id="Actor Framework.lvlib:Message-backto-Appearance Actor.lvlib:Apply Theme Msg" style="stroke:#181818;stroke-width:1.0;"/><polygon fill="none" points="943.09,110.36,941.35,89.24,955.88,104.66,943.09,110.36" style="stroke:#181818;stroke-width:1.0;"/></g><!--MD5=[84f6550f62374d41544f59104ed1d1bb]
reverse link Actor Framework.lvlib:Message to Appearance Actor.lvlib:Load Theme-Root Only Msg--><g id="link_Actor Framework.lvlib:Message_Appearance Actor.lvlib:Load Theme-Root Only Msg"><path codeLine="22" d="M912.66,107.55 C893.51,150.96 863.49,218.98 843.3,264.74 " fill="none" id="Actor Framework.lvlib:Message-backto-Appearance Actor.lvlib:Load Theme-Root Only Msg" style="stroke:#181818;stroke-width:1.0;"/><polygon fill="none" points="906.27,104.71,920.75,89.24,919.08,110.36,906.27,104.71" style="stroke:#181818;stroke-width:1.0;"/></g><!--MD5=[f71c1f59097231784789ffd1648048c9]
reverse link Actor Framework.lvlib:Message to Appearance Actor.lvlib:Propagate Theme To Nested Appearance Actors Msg--><g id="link_Actor Framework.lvlib:Message_Appearance Actor.lvlib:Propagate Theme To Nested Appearance Actors Msg"><path codeLine="30" d="M866.46,67.73 C745.88,71.8 491.43,84.54 412,121 C337.74,155.09 273.09,227.12 237.42,272.62 " fill="none" id="Actor Framework.lvlib:Message-backto-Appearance Actor.lvlib:Propagate Theme To Nested Appearance Actors Msg" style="stroke:#181818;stroke-width:1.0;"/><polygon fill="none" points="866.45,60.73,886.66,67.09,866.89,74.72,866.45,60.73" style="stroke:#181818;stroke-width:1.0;"/></g><!--MD5=[d05a48684ac815d261fc93e0e8145b88]
reverse link Actor Framework.lvlib:Message to Appearance Actor.lvlib:Recieve Theme From Caller Msg--><g id="link_Actor Framework.lvlib:Message_Appearance Actor.lvlib:Recieve Theme From Caller Msg"><path codeLine="39" d="M995.3,72.04 C1038.01,78.62 1093.62,92.36 1135,121 C1187.65,157.45 1227.38,220.77 1250.38,264.68 " fill="none" id="Actor Framework.lvlib:Message-backto-Appearance Actor.lvlib:Recieve Theme From Caller Msg" style="stroke:#181818;stroke-width:1.0;"/><polygon fill="none" points="994.07,78.93,975.19,69.31,995.95,65.06,994.07,78.93" style="stroke:#181818;stroke-width:1.0;"/></g><!--MD5=[a89a9f0172e1bd43a99f7e7f216b01ef]
reverse link Appearance Actor.lvlib:Generic Theme to Appearance Actor.lvlib:ini Theme--><g id="link_Appearance Actor.lvlib:Generic Theme_Appearance Actor.lvlib:ini Theme"><path codeLine="75" d="M554,484.52 C554,497.87 554,511.12 554,523.87 " fill="none" id="Appearance Actor.lvlib:Generic Theme-backto-Appearance Actor.lvlib:ini Theme" style="stroke:#181818;stroke-width:1.0;"/><polygon fill="none" points="547,484.21,554,464.21,561,484.21,547,484.21" style="stroke:#181818;stroke-width:1.0;"/></g><!--MD5=[7da667676494ed9e42204643ae36cdb7]
reverse link Panel Actor.lvlib:Panel Actor to Appearance Actor.lvlib:Appearance Actor--><g id="link_Panel Actor.lvlib:Panel Actor_Appearance Actor.lvlib:Appearance Actor"><path codeLine="90" d="M1596,109.65 C1596,138.71 1596,178.1 1596,214.47 " fill="none" id="Panel Actor.lvlib:Panel Actor-backto-Appearance Actor.lvlib:Appearance Actor" style="stroke:#181818;stroke-width:1.0;"/><polygon fill="none" points="1589,109.24,1596,89.24,1603,109.24,1589,109.24" style="stroke:#181818;stroke-width:1.0;"/></g><!--MD5=[ea463185a6d15471e07819020b2e3ad4]
reverse link Appearance Actor.lvlib:Appearance Actor to Root Panel.lvlib:Root Panel Actor--><g id="link_Appearance Actor.lvlib:Appearance Actor_Root Panel.lvlib:Root Panel Actor"><path codeLine="98" d="M1707.12,428.27 C1762.73,484.95 1826.54,550 1866.56,590.8 " fill="none" id="Appearance Actor.lvlib:Appearance Actor-backto-Root Panel.lvlib:Root Panel Actor" style="stroke:#181818;stroke-width:1.0;"/><polygon fill="none" points="1701.82,432.86,1692.81,413.68,1711.81,423.06,1701.82,432.86" style="stroke:#181818;stroke-width:1.0;"/></g><!--MD5=[18048a1c077cd709924e9f98c6661828]
@startuml
set namespaceSeparator :
skinparam ClassBackgroundColor #FFFFFF
skinparam ClassBorderColor #555555
skinparam ClassFontColor #000000
skinparam ClassHeaderBackgroundColor #808080

skinparam top to bottom direction
class "Appearance Actor.lvlib:Apply Theme Msg" {
{static} {method} +Send Apply Theme()
{method} +Do()

}
"Actor Framework.lvlib:Message" <|- - "Appearance Actor.lvlib:Apply Theme Msg"


class "Appearance Actor.lvlib:Load Theme-Root Only Msg" {
{field} -Theme File Path : Path
{static} {method} +Send Load Theme-Root Only()
{method} +Do()

}
"Actor Framework.lvlib:Message" <|- - "Appearance Actor.lvlib:Load Theme-Root Only Msg"


class "Appearance Actor.lvlib:Propagate Theme To Nested Appearance Actors Msg" {
{static} {method} +Send Propagate Theme To Nested Appearance Actors()
{method} +Do()

}
"Actor Framework.lvlib:Message" <|- - "Appearance Actor.lvlib:Propagate Theme To Nested Appearance Actors Msg"


class "Appearance Actor.lvlib:Recieve Theme From Caller Msg" {
{field} -Theme DVR : NoType
{static} {method} +Send Recieve Theme From Caller()
{method} +Do()

}
"Actor Framework.lvlib:Message" <|- - "Appearance Actor.lvlib:Recieve Theme From Caller Msg"


class "Appearance Actor.lvlib:Generic Theme" {
{field} +A Theme is Loaded : Boolean
{static} {method} +Default Entry Value()
{static} {method} +Style String To Bools()
{static} {method} +Theme Entry Enum To String()
{static} {method} +U32 Color To Hexa String()
{static} {method} +Hexa String To U32 Color()
{method} +Apply Light-Dark Controls Visibility()
{method} +Apply Theme To ActionButtons()
{method} +Apply Theme To CloseButton()
{method} +Apply Theme To Pane()
{method} +Apply Theme To Splitter()
{method} +Apply Theme To Title()
{method} +Load Theme()
{method} +Unload Theme()
{method} +Get Theme Info()

}


class "Appearance Actor.lvlib:ini Theme" {
{field} -ini Config Ref : NoType
{method} +Apply Light-Dark Controls Visibility()
{method} +Apply Theme To ActionButtons()
{method} +Apply Theme To CloseButton()
{method} +Apply Theme To Pane()
{method} +Apply Theme To Splitter()
{method} +Apply Theme To Title()
{method} +Load Theme()
{method} +Unload Theme()
{method} +Get Theme Info()

}
"Appearance Actor.lvlib:Generic Theme" <|- - "Appearance Actor.lvlib:ini Theme"


class "Appearance Actor.lvlib:Appearance Actor" {
{field} +Theme DVR : NoType
{field} -Panel References : Cluster
{method} +Apply Theme()
{method} +Load Theme-Root Only()
{method} +Propagate Theme To Nested Appearance Actors()
{method} +Recieve Theme From Caller()
{method} #Pre Launch Init()
{method} #Stop Core()
{method} #Substitute Actor()

}
"Panel Actor.lvlib:Panel Actor" <|- - "Appearance Actor.lvlib:Appearance Actor"


class "Root Panel.lvlib:Root Panel Actor" {
{field} -FP References : Cluster
{method} #Actor Core()

}
"Appearance Actor.lvlib:Appearance Actor" <|- - "Root Panel.lvlib:Root Panel Actor"



@enduml

PlantUML version 1.2022.5(Sat Apr 30 10:55:52 GMT 2022)
(GPL source distribution)
Java Runtime: OpenJDK Runtime Environment
JVM: OpenJDK 64-Bit Server VM
Default Encoding: UTF-8
Language: en
Country: US
--></g></svg>