<?xml version="1.0" encoding="UTF-8" standalone="no"?><svg xmlns="http://www.w3.org/2000/svg" xmlns:xlink="http://www.w3.org/1999/xlink" contentStyleType="text/css" height="269px" preserveAspectRatio="none" style="width:417px;height:269px;background:#FFFFFF;" version="1.1" viewBox="0 0 417 269" width="417px" zoomAndPan="magnify"><defs/><g><!--MD5=[c3bba3c91c036041d3a1ed31e588f991]
cluster Appearance Actor.lvlib--><g id="cluster_Appearance Actor.lvlib"><path d="M8.5,129 L164.5,129 A3.75,3.75 0 0 1 167,131.5 L174,151.7999 L407.5,151.7999 A2.5,2.5 0 0 1 410,154.2999 L410,259.5 A2.5,2.5 0 0 1 407.5,262 L8.5,262 A2.5,2.5 0 0 1 6,259.5 L6,131.5 A2.5,2.5 0 0 1 8.5,129 " style="stroke:#000000;stroke-width:1.5;fill:none;"/><line style="stroke:#000000;stroke-width:1.5;fill:none;" x1="6" x2="174" y1="151.7999" y2="151.7999"/><text fill="#000000" font-family="sans-serif" font-size="14" font-weight="bold" lengthAdjust="spacing" textLength="155" x="10" y="144.9999">Appearance Actor.lvlib</text></g><!--MD5=[4682a97c6ce0bfcadfccb11b1ed944c5]
cluster Actor Framework.lvlib--><g id="cluster_Actor Framework.lvlib"><path d="M128.5,6 L278.5,6 A3.75,3.75 0 0 1 281,8.5 L288,28.7999 L288.5,28.7999 A2.5,2.5 0 0 1 291,31.2999 L291,102.5 A2.5,2.5 0 0 1 288.5,105 L128.5,105 A2.5,2.5 0 0 1 126,102.5 L126,8.5 A2.5,2.5 0 0 1 128.5,6 " style="stroke:#000000;stroke-width:1.5;fill:none;"/><line style="stroke:#000000;stroke-width:1.5;fill:none;" x1="126" x2="288" y1="28.7999" y2="28.7999"/><text fill="#000000" font-family="sans-serif" font-size="14" font-weight="bold" lengthAdjust="spacing" textLength="149" x="130" y="21.9999">Actor Framework.lvlib</text></g><!--MD5=[e9ebd02fafe66219285167b7ff75d23b]
class Appearance Actor.lvlib:Propagate Theme To Nested Appearance Actors Msg--><g id="elem_Appearance Actor.lvlib:Propagate Theme To Nested Appearance Actors Msg"><rect codeLine="8" fill="#FFFFFF" height="81.5999" id="Appearance Actor.lvlib:Propagate Theme To Nested Appearance Actors Msg" rx="2.5" ry="2.5" style="stroke:#555555;stroke-width:0.5;" width="371" x="22.5" y="164"/><rect fill="#808080" height="32" rx="2.5" ry="2.5" style="stroke:#808080;stroke-width:0.5;" width="371" x="22.5" y="164"/><rect fill="#808080" height="2.5" style="stroke:#808080;stroke-width:0.5;" width="371" x="22.5" y="193.5"/><rect codeLine="8" fill="none" height="81.5999" id="Appearance Actor.lvlib:Propagate Theme To Nested Appearance Actors Msg" rx="2.5" ry="2.5" style="stroke:#555555;stroke-width:0.5;" width="371" x="22.5" y="164"/><ellipse cx="41.55" cy="180" fill="#ADD1B2" rx="11" ry="11" style="stroke:#181818;stroke-width:1.0;"/><path d="M40.9094,183.7813 Q41.7063,183.7813 42.2688,183.5938 Q42.8469,183.3906 43.0813,183.1719 Q43.3313,182.9375 43.5656,182.75 Q43.8156,182.5469 44.0344,182.5469 Q44.3781,182.5469 44.6281,182.8125 Q44.8938,183.0625 44.8938,183.3906 Q44.8938,184.125 43.7219,184.8125 Q42.5656,185.4844 40.8625,185.4844 Q38.7063,185.4844 37.2844,184.2188 Q35.8625,182.9531 35.8625,181.0156 L35.8625,179.8906 Q35.8625,177.8594 37.1906,176.4844 Q38.5188,175.0938 40.4875,175.0938 Q41.675,175.0938 42.8938,175.6719 L43.0656,175.75 Q43.3625,175.3438 43.7844,175.3438 Q44.2688,175.3438 44.4406,175.6406 Q44.6281,175.9219 44.6281,176.4688 L44.6281,177.8906 Q44.6281,179.0156 43.7844,179.0156 Q43.4719,179.0156 43.2688,178.8438 Q43.0813,178.6719 43.0344,178.5313 Q43.0031,178.375 42.9563,178.1094 Q42.8469,177.5938 42.3313,177.2813 Q41.8156,176.9688 41.3625,176.8906 Q40.925,176.7969 40.55,176.7969 Q39.2688,176.7969 38.4094,177.6719 Q37.5656,178.5469 37.5656,179.8906 L37.5656,180.9844 Q37.5656,182.2656 38.4719,183.0313 Q39.3781,183.7813 40.9094,183.7813 Z " fill="#000000"/><text fill="#000000" font-family="sans-serif" font-size="14" lengthAdjust="spacing" textLength="330" x="56.45" y="185.6">Propagate Theme To Nested Appearance Actors Msg</text><line style="stroke:#555555;stroke-width:0.5;" x1="23.5" x2="392.5" y1="196" y2="196"/><line style="stroke:#555555;stroke-width:0.5;" x1="23.5" x2="392.5" y1="204" y2="204"/><ellipse cx="33.5" cy="215" fill="#84BE84" rx="3" ry="3" style="stroke:#038048;stroke-width:1.0;"/><text fill="#000000" font-family="sans-serif" font-size="14" lengthAdjust="spacing" text-decoration="underline" textLength="345" x="42.5" y="221.9999">Send Propagate Theme To Nested Appearance Actors()</text><ellipse cx="33.5" cy="231.7999" fill="#84BE84" rx="3" ry="3" style="stroke:#038048;stroke-width:1.0;"/><text fill="#000000" font-family="sans-serif" font-size="14" lengthAdjust="spacing" textLength="27" x="42.5" y="238.7999">Do()</text></g><!--MD5=[214c99f83f762f8ee15e0e75722647ab]
class Actor Framework.lvlib:Message--><g id="elem_Actor Framework.lvlib:Message"><rect fill="#FFFFFF" height="48" id="Actor Framework.lvlib:Message" rx="2.5" ry="2.5" style="stroke:#555555;stroke-width:0.5;" width="88" x="164" y="41"/><rect fill="#808080" height="32" rx="2.5" ry="2.5" style="stroke:#808080;stroke-width:0.5;" width="88" x="164" y="41"/><rect fill="#808080" height="2.5" style="stroke:#808080;stroke-width:0.5;" width="88" x="164" y="70.5"/><rect fill="none" height="48" id="Actor Framework.lvlib:Message" rx="2.5" ry="2.5" style="stroke:#555555;stroke-width:0.5;" width="88" x="164" y="41"/><ellipse cx="179" cy="57" fill="#ADD1B2" rx="11" ry="11" style="stroke:#181818;stroke-width:1.0;"/><path d="M178.3594,60.7813 Q179.1563,60.7813 179.7188,60.5938 Q180.2969,60.3906 180.5313,60.1719 Q180.7813,59.9375 181.0156,59.75 Q181.2656,59.5469 181.4844,59.5469 Q181.8281,59.5469 182.0781,59.8125 Q182.3438,60.0625 182.3438,60.3906 Q182.3438,61.125 181.1719,61.8125 Q180.0156,62.4844 178.3125,62.4844 Q176.1563,62.4844 174.7344,61.2188 Q173.3125,59.9531 173.3125,58.0156 L173.3125,56.8906 Q173.3125,54.8594 174.6406,53.4844 Q175.9688,52.0938 177.9375,52.0938 Q179.125,52.0938 180.3438,52.6719 L180.5156,52.75 Q180.8125,52.3438 181.2344,52.3438 Q181.7188,52.3438 181.8906,52.6406 Q182.0781,52.9219 182.0781,53.4688 L182.0781,54.8906 Q182.0781,56.0156 181.2344,56.0156 Q180.9219,56.0156 180.7188,55.8438 Q180.5313,55.6719 180.4844,55.5313 Q180.4531,55.375 180.4063,55.1094 Q180.2969,54.5938 179.7813,54.2813 Q179.2656,53.9688 178.8125,53.8906 Q178.375,53.7969 178,53.7969 Q176.7188,53.7969 175.8594,54.6719 Q175.0156,55.5469 175.0156,56.8906 L175.0156,57.9844 Q175.0156,59.2656 175.9219,60.0313 Q176.8281,60.7813 178.3594,60.7813 Z " fill="#000000"/><text fill="#000000" font-family="sans-serif" font-size="14" lengthAdjust="spacing" textLength="56" x="193" y="62.6">Message</text><line style="stroke:#555555;stroke-width:0.5;" x1="165" x2="251" y1="73" y2="73"/><line style="stroke:#555555;stroke-width:0.5;" x1="165" x2="251" y1="81" y2="81"/></g><!--MD5=[f71c1f59097231784789ffd1648048c9]
reverse link Actor Framework.lvlib:Message to Appearance Actor.lvlib:Propagate Theme To Nested Appearance Actors Msg--><g id="link_Actor Framework.lvlib:Message_Appearance Actor.lvlib:Propagate Theme To Nested Appearance Actors Msg"><path codeLine="13" d="M208,109.37 C208,126.77 208,146.7 208,163.77 " fill="none" id="Actor Framework.lvlib:Message-backto-Appearance Actor.lvlib:Propagate Theme To Nested Appearance Actors Msg" style="stroke:#181818;stroke-width:1.0;"/><polygon fill="none" points="201,109.1,208,89.1,215,109.1,201,109.1" style="stroke:#181818;stroke-width:1.0;"/></g><!--MD5=[687c97aad3d1f555b0de654f0567dcfc]
@startuml
set namespaceSeparator :
skinparam ClassBackgroundColor #FFFFFF
skinparam ClassBorderColor #555555
skinparam ClassFontColor #000000
skinparam ClassHeaderBackgroundColor #808080

skinparam top to bottom direction
class "Appearance Actor.lvlib:Propagate Theme To Nested Appearance Actors Msg" {
{static} {method} +Send Propagate Theme To Nested Appearance Actors()
{method} +Do()

}
"Actor Framework.lvlib:Message" <|- - "Appearance Actor.lvlib:Propagate Theme To Nested Appearance Actors Msg"



@enduml

PlantUML version 1.2022.5(Sat Apr 30 10:55:52 GMT 2022)
(GPL source distribution)
Java Runtime: OpenJDK Runtime Environment
JVM: OpenJDK 64-Bit Server VM
Default Encoding: UTF-8
Language: en
Country: US
--></g></svg>