<?xml version="1.0" encoding="UTF-8" standalone="no"?><svg xmlns="http://www.w3.org/2000/svg" xmlns:xlink="http://www.w3.org/1999/xlink" contentStyleType="text/css" height="285px" preserveAspectRatio="none" style="width:287px;height:285px;background:#FFFFFF;" version="1.1" viewBox="0 0 287 285" width="287px" zoomAndPan="magnify"><defs/><g><!--MD5=[c3bba3c91c036041d3a1ed31e588f991]
cluster Appearance Actor.lvlib--><g id="cluster_Appearance Actor.lvlib"><path d="M8.5,129 L164.5,129 A3.75,3.75 0 0 1 167,131.5 L174,151.7999 L277.5,151.7999 A2.5,2.5 0 0 1 280,154.2999 L280,275.5 A2.5,2.5 0 0 1 277.5,278 L8.5,278 A2.5,2.5 0 0 1 6,275.5 L6,131.5 A2.5,2.5 0 0 1 8.5,129 " style="stroke:#000000;stroke-width:1.5;fill:none;"/><line style="stroke:#000000;stroke-width:1.5;fill:none;" x1="6" x2="174" y1="151.7999" y2="151.7999"/><text fill="#000000" font-family="sans-serif" font-size="14" font-weight="bold" lengthAdjust="spacing" textLength="155" x="10" y="144.9999">Appearance Actor.lvlib</text></g><!--MD5=[4682a97c6ce0bfcadfccb11b1ed944c5]
cluster Actor Framework.lvlib--><g id="cluster_Actor Framework.lvlib"><path d="M63.5,6 L213.5,6 A3.75,3.75 0 0 1 216,8.5 L223,28.7999 L223.5,28.7999 A2.5,2.5 0 0 1 226,31.2999 L226,102.5 A2.5,2.5 0 0 1 223.5,105 L63.5,105 A2.5,2.5 0 0 1 61,102.5 L61,8.5 A2.5,2.5 0 0 1 63.5,6 " style="stroke:#000000;stroke-width:1.5;fill:none;"/><line style="stroke:#000000;stroke-width:1.5;fill:none;" x1="61" x2="223" y1="28.7999" y2="28.7999"/><text fill="#000000" font-family="sans-serif" font-size="14" font-weight="bold" lengthAdjust="spacing" textLength="149" x="65" y="21.9999">Actor Framework.lvlib</text></g><!--MD5=[e3a867514fce195ea4b33ce88a235c4a]
class Appearance Actor.lvlib:Recieve Theme From Caller Msg--><g id="elem_Appearance Actor.lvlib:Recieve Theme From Caller Msg"><rect codeLine="8" fill="#FFFFFF" height="98.3998" id="Appearance Actor.lvlib:Recieve Theme From Caller Msg" rx="2.5" ry="2.5" style="stroke:#555555;stroke-width:0.5;" width="241" x="22.5" y="164"/><rect fill="#808080" height="32" rx="2.5" ry="2.5" style="stroke:#808080;stroke-width:0.5;" width="241" x="22.5" y="164"/><rect fill="#808080" height="2.5" style="stroke:#808080;stroke-width:0.5;" width="241" x="22.5" y="193.5"/><rect codeLine="8" fill="none" height="98.3998" id="Appearance Actor.lvlib:Recieve Theme From Caller Msg" rx="2.5" ry="2.5" style="stroke:#555555;stroke-width:0.5;" width="241" x="22.5" y="164"/><ellipse cx="41.55" cy="180" fill="#ADD1B2" rx="11" ry="11" style="stroke:#181818;stroke-width:1.0;"/><path d="M40.9094,183.7813 Q41.7063,183.7813 42.2688,183.5938 Q42.8469,183.3906 43.0813,183.1719 Q43.3313,182.9375 43.5656,182.75 Q43.8156,182.5469 44.0344,182.5469 Q44.3781,182.5469 44.6281,182.8125 Q44.8938,183.0625 44.8938,183.3906 Q44.8938,184.125 43.7219,184.8125 Q42.5656,185.4844 40.8625,185.4844 Q38.7063,185.4844 37.2844,184.2188 Q35.8625,182.9531 35.8625,181.0156 L35.8625,179.8906 Q35.8625,177.8594 37.1906,176.4844 Q38.5188,175.0938 40.4875,175.0938 Q41.675,175.0938 42.8938,175.6719 L43.0656,175.75 Q43.3625,175.3438 43.7844,175.3438 Q44.2688,175.3438 44.4406,175.6406 Q44.6281,175.9219 44.6281,176.4688 L44.6281,177.8906 Q44.6281,179.0156 43.7844,179.0156 Q43.4719,179.0156 43.2688,178.8438 Q43.0813,178.6719 43.0344,178.5313 Q43.0031,178.375 42.9563,178.1094 Q42.8469,177.5938 42.3313,177.2813 Q41.8156,176.9688 41.3625,176.8906 Q40.925,176.7969 40.55,176.7969 Q39.2688,176.7969 38.4094,177.6719 Q37.5656,178.5469 37.5656,179.8906 L37.5656,180.9844 Q37.5656,182.2656 38.4719,183.0313 Q39.3781,183.7813 40.9094,183.7813 Z " fill="#000000"/><text fill="#000000" font-family="sans-serif" font-size="14" lengthAdjust="spacing" textLength="200" x="56.45" y="185.6">Recieve Theme From Caller Msg</text><line style="stroke:#555555;stroke-width:0.5;" x1="23.5" x2="262.5" y1="196" y2="196"/><rect fill="none" height="6" style="stroke:#C82930;stroke-width:1.0;" width="6" x="30.5" y="204"/><text fill="#000000" font-family="sans-serif" font-size="14" lengthAdjust="spacing" textLength="135" x="42.5" y="213.9999">Theme DVR : NoType</text><line style="stroke:#555555;stroke-width:0.5;" x1="23.5" x2="262.5" y1="220.7999" y2="220.7999"/><ellipse cx="33.5" cy="231.7999" fill="#84BE84" rx="3" ry="3" style="stroke:#038048;stroke-width:1.0;"/><text fill="#000000" font-family="sans-serif" font-size="14" lengthAdjust="spacing" text-decoration="underline" textLength="215" x="42.5" y="238.7999">Send Recieve Theme From Caller()</text><ellipse cx="33.5" cy="248.5999" fill="#84BE84" rx="3" ry="3" style="stroke:#038048;stroke-width:1.0;"/><text fill="#000000" font-family="sans-serif" font-size="14" lengthAdjust="spacing" textLength="27" x="42.5" y="255.5998">Do()</text></g><!--MD5=[214c99f83f762f8ee15e0e75722647ab]
class Actor Framework.lvlib:Message--><g id="elem_Actor Framework.lvlib:Message"><rect fill="#FFFFFF" height="48" id="Actor Framework.lvlib:Message" rx="2.5" ry="2.5" style="stroke:#555555;stroke-width:0.5;" width="88" x="99" y="41"/><rect fill="#808080" height="32" rx="2.5" ry="2.5" style="stroke:#808080;stroke-width:0.5;" width="88" x="99" y="41"/><rect fill="#808080" height="2.5" style="stroke:#808080;stroke-width:0.5;" width="88" x="99" y="70.5"/><rect fill="none" height="48" id="Actor Framework.lvlib:Message" rx="2.5" ry="2.5" style="stroke:#555555;stroke-width:0.5;" width="88" x="99" y="41"/><ellipse cx="114" cy="57" fill="#ADD1B2" rx="11" ry="11" style="stroke:#181818;stroke-width:1.0;"/><path d="M113.3594,60.7813 Q114.1563,60.7813 114.7188,60.5938 Q115.2969,60.3906 115.5313,60.1719 Q115.7813,59.9375 116.0156,59.75 Q116.2656,59.5469 116.4844,59.5469 Q116.8281,59.5469 117.0781,59.8125 Q117.3438,60.0625 117.3438,60.3906 Q117.3438,61.125 116.1719,61.8125 Q115.0156,62.4844 113.3125,62.4844 Q111.1563,62.4844 109.7344,61.2188 Q108.3125,59.9531 108.3125,58.0156 L108.3125,56.8906 Q108.3125,54.8594 109.6406,53.4844 Q110.9688,52.0938 112.9375,52.0938 Q114.125,52.0938 115.3438,52.6719 L115.5156,52.75 Q115.8125,52.3438 116.2344,52.3438 Q116.7188,52.3438 116.8906,52.6406 Q117.0781,52.9219 117.0781,53.4688 L117.0781,54.8906 Q117.0781,56.0156 116.2344,56.0156 Q115.9219,56.0156 115.7188,55.8438 Q115.5313,55.6719 115.4844,55.5313 Q115.4531,55.375 115.4063,55.1094 Q115.2969,54.5938 114.7813,54.2813 Q114.2656,53.9688 113.8125,53.8906 Q113.375,53.7969 113,53.7969 Q111.7188,53.7969 110.8594,54.6719 Q110.0156,55.5469 110.0156,56.8906 L110.0156,57.9844 Q110.0156,59.2656 110.9219,60.0313 Q111.8281,60.7813 113.3594,60.7813 Z " fill="#000000"/><text fill="#000000" font-family="sans-serif" font-size="14" lengthAdjust="spacing" textLength="56" x="128" y="62.6">Message</text><line style="stroke:#555555;stroke-width:0.5;" x1="100" x2="186" y1="73" y2="73"/><line style="stroke:#555555;stroke-width:0.5;" x1="100" x2="186" y1="81" y2="81"/></g><!--MD5=[d05a48684ac815d261fc93e0e8145b88]
reverse link Actor Framework.lvlib:Message to Appearance Actor.lvlib:Recieve Theme From Caller Msg--><g id="link_Actor Framework.lvlib:Message_Appearance Actor.lvlib:Recieve Theme From Caller Msg"><path codeLine="14" d="M143,109.42 C143,126.56 143,146.32 143,163.9 " fill="none" id="Actor Framework.lvlib:Message-backto-Appearance Actor.lvlib:Recieve Theme From Caller Msg" style="stroke:#181818;stroke-width:1.0;"/><polygon fill="none" points="136,109.13,143,89.13,150,109.13,136,109.13" style="stroke:#181818;stroke-width:1.0;"/></g><!--MD5=[2054534834062eaa875260f8fc1dda1d]
@startuml
set namespaceSeparator :
skinparam ClassBackgroundColor #FFFFFF
skinparam ClassBorderColor #555555
skinparam ClassFontColor #000000
skinparam ClassHeaderBackgroundColor #808080

skinparam top to bottom direction
class "Appearance Actor.lvlib:Recieve Theme From Caller Msg" {
{field} -Theme DVR : NoType
{static} {method} +Send Recieve Theme From Caller()
{method} +Do()

}
"Actor Framework.lvlib:Message" <|- - "Appearance Actor.lvlib:Recieve Theme From Caller Msg"



@enduml

PlantUML version 1.2022.5(Sat Apr 30 10:55:52 GMT 2022)
(GPL source distribution)
Java Runtime: OpenJDK Runtime Environment
JVM: OpenJDK 64-Bit Server VM
Default Encoding: UTF-8
Language: en
Country: US
--></g></svg>