<?xml version="1.0" encoding="UTF-8" standalone="no"?>
<!-- Created with Inkscape (http://www.inkscape.org/) -->

<svg
   width="1920mm"
   height="1080mm"
   viewBox="0 0 1920 1080"
   version="1.1"
   id="svg5"
   inkscape:version="1.2.1 (9c6d41e410, 2022-07-14)"
   sodipodi:docname="TemplateVIEW-MainApp.svg"
   xml:space="preserve"
   xmlns:inkscape="http://www.inkscape.org/namespaces/inkscape"
   xmlns:sodipodi="http://sodipodi.sourceforge.net/DTD/sodipodi-0.dtd"
   xmlns="http://www.w3.org/2000/svg"
   xmlns:svg="http://www.w3.org/2000/svg"><sodipodi:namedview
     id="namedview7"
     pagecolor="#ffffff"
     bordercolor="#eeeeee"
     borderopacity="1"
     inkscape:showpageshadow="0"
     inkscape:pageopacity="0"
     inkscape:pagecheckerboard="0"
     inkscape:deskcolor="#7b5e48"
     inkscape:document-units="mm"
     showgrid="false"
     inkscape:zoom="0.18462928"
     inkscape:cx="3767.0082"
     inkscape:cy="2041.9297"
     inkscape:window-width="1920"
     inkscape:window-height="1009"
     inkscape:window-x="-8"
     inkscape:window-y="-8"
     inkscape:window-maximized="1"
     inkscape:current-layer="layer1"><sodipodi:guide
       position="0,1080"
       orientation="0,7256.6929"
       id="guide606"
       inkscape:locked="false" /><sodipodi:guide
       position="1920,1080"
       orientation="4081.8898,0"
       id="guide608"
       inkscape:locked="false" /><sodipodi:guide
       position="1920,0"
       orientation="0,-7256.6929"
       id="guide610"
       inkscape:locked="false" /><sodipodi:guide
       position="0,0"
       orientation="-4081.8898,0"
       id="guide612"
       inkscape:locked="false" /></sodipodi:namedview><defs
     id="defs2"><marker
       style="overflow:visible"
       id="Arrow1"
       refX="-1"
       refY="0"
       orient="auto-start-reverse"
       inkscape:stockid="Arrow1"
       markerWidth="2.0609999"
       markerHeight="3.4042115"
       viewBox="0 0 4.0606602 6.7071068"
       inkscape:isstock="true"
       inkscape:collect="always"
       preserveAspectRatio="xMidYMid"><path
         style="fill:none;stroke:context-stroke;stroke-width:1;stroke-linecap:butt"
         d="M 3,-3 0,0 3,3"
         id="path5057"
         transform="rotate(180,0.125,0)"
         sodipodi:nodetypes="ccc" /></marker><rect
       x="444.26533"
       y="533.30988"
       width="314.04963"
       height="108.19393"
       id="rect15322" /><rect
       x="547.04216"
       y="503.12514"
       width="1641.1265"
       height="125.16091"
       id="rect12086" /><rect
       x="554.151"
       y="508.78983"
       width="126.60506"
       height="70.749884"
       id="rect10944" /><rect
       x="779.9413"
       y="503.12514"
       width="779.9413"
       height="233.48609"
       id="rect10630" /><rect
       x="985.75914"
       y="752.86001"
       width="514.54461"
       height="200.40158"
       id="rect10624" /><rect
       x="1088.6681"
       y="758.27626"
       width="5270.02"
       height="714.94619"
       id="rect744" /><rect
       x="547.04218"
       y="503.12515"
       width="1641.1265"
       height="125.16091"
       id="rect12086-2" /><rect
       x="444.26532"
       y="533.30988"
       width="314.04962"
       height="108.19393"
       id="rect15322-4" /><rect
       x="444.26532"
       y="533.30988"
       width="314.04962"
       height="108.19393"
       id="rect15322-4-7" /></defs><g
     inkscape:label="Main APP"
     inkscape:groupmode="layer"
     id="layer1"
     transform="translate(-6.8399151,-4.0532832)"><rect
       style="fill:#333333;stroke-width:0.207386"
       id="rect614"
       width="73.085648"
       height="1079.9999"
       x="6.8399153"
       y="4.0533018" /><rect
       style="fill:#333333;stroke-width:0.224668"
       id="rect614-1"
       width="1846.9143"
       height="50.156841"
       x="79.92556"
       y="4.0533018" /><text
       xml:space="preserve"
       transform="matrix(16.438736,9.297645,-8.2429631,12.829743,-10994.418,-19708.351)"
       id="text742"
       style="white-space:pre;shape-inside:url(#rect744);display:inline;fill:#333333"><tspan
         x="1088.668"
         y="769.22335"
         id="tspan20770">Main App
</tspan><tspan
         x="1088.668"
         y="784.22335"
         id="tspan20772">Sub Panel </tspan></text><g
       id="g826"
       transform="matrix(0.32247361,0.32580311,-0.32580311,0.32247361,1362.4209,-586.60554)"
       style="fill:#808080"><rect
         style="fill:#808080;stroke-width:0.264583"
         id="rect800"
         width="90.945526"
         height="13.173169"
         x="1740.1249"
         y="98.798767" /><rect
         style="fill:#808080;stroke-width:0.264583"
         id="rect800-6"
         width="90.945526"
         height="13.173169"
         x="58.853661"
         y="-1792.2465"
         transform="rotate(90.033978)" /></g><rect
       style="fill:#808080;stroke-width:0.121287"
       id="rect800-6-7"
       width="41.690056"
       height="6.038672"
       x="-1823.0769"
       y="-34.970097"
       transform="rotate(179.91038)" /><rect
       style="fill:none;stroke:#808080;stroke-width:5.93582;stroke-dasharray:none;stroke-opacity:1"
       id="rect880"
       width="29.773722"
       height="27.668509"
       x="1840.1516"
       y="15.297482" /><path
       style="fill:#808080;fill-opacity:1;stroke-width:0.222828"
       d="M 15.194934,108.98401 V 80.796202 h 28.18781 28.1878 v 28.187808 28.1878 h -28.1878 -28.18781 z m 51.91904,0 V 85.252762 h -23.73123 -23.73124 v 23.731248 23.73123 h 23.73124 23.73123 z m -32.53296,15.48658 v -3.1196 h -3.1196 -3.11959 v -3.1196 -3.1196 h -2.67395 -2.67394 v -12.4784 -12.478388 h 20.38881 20.3888 v 12.478388 12.4784 h -2.67394 -2.67394 v 3.1196 3.1196 h -3.11959 -3.11961 v 3.1196 3.1196 h -8.80172 -8.80173 z m -6.06655,-27.797858 0.0612,-3.62096 h -1.78814 -1.78815 v 3.52812 c 0,1.94046 0.0708,3.598938 0.15738,3.685498 0.0866,0.0866 0.86368,0.12834 1.72693,0.0928 l 1.56953,-0.0645 z m 5.57071,0 0.0612,-3.62096 h -1.78814 -1.78815 v 3.52812 c 0,1.94046 0.0708,3.598938 0.15739,3.685498 0.0866,0.0866 0.86367,0.12834 1.72692,0.0928 l 1.56953,-0.0645 z m 5.50948,0.0557 v -3.56525 l -1.72692,-0.0651 -1.72692,-0.0651 v 3.5375 c 0,1.94562 0.0708,3.608308 0.15739,3.694868 0.0866,0.0866 0.86368,0.12834 1.72692,0.0928 l 1.56953,-0.0645 z m 5.57072,0 v -3.56525 h -1.78263 -1.78263 l -0.0617,3.43698 c -0.0466,2.59833 0.008,3.482248 0.22283,3.622548 0.1565,0.10207 0.98646,0.1598 1.84435,0.12828 l 1.5598,-0.0573 z m 5.4593,-0.009 v -3.68605 l -1.72692,0.0651 -1.72692,0.0651 -0.0619,3.33265 c -0.0341,1.83295 -0.0121,3.46238 0.0487,3.620958 0.077,0.20057 0.62145,0.28832 1.78885,0.28832 h 1.67821 v -3.686038 z m 5.52052,-0.0463 0.0612,-3.62096 h -1.78815 -1.78815 v 3.52812 c 0,1.94046 0.0708,3.598938 0.15739,3.685498 0.0866,0.0866 0.86367,0.12834 1.72692,0.0928 l 1.56953,-0.0645 z m 5.57071,0 0.0612,-3.62096 h -1.78815 -1.78815 v 3.52812 c 0,1.94046 0.0708,3.598938 0.15739,3.685498 0.0866,0.0866 0.86368,0.12834 1.72692,0.0928 l 1.56953,-0.0645 z"
       id="path10499" /><text
       xml:space="preserve"
       transform="matrix(0.26458333,0,0,0.26458333,6.8399151,4.0532832)"
       id="text10628"
       style="white-space:pre;shape-inside:url(#rect10630);display:inline;fill:#808080;fill-opacity:1;stroke:#808080;stroke-width:18.8976;stroke-dasharray:none;stroke-opacity:1" /><text
       xml:space="preserve"
       transform="matrix(1.7543972,0,0,1.7543972,-951.91558,-888.35756)"
       id="text10942"
       style="white-space:pre;shape-inside:url(#rect10944);display:inline;fill:#808080;fill-opacity:1;stroke:none;stroke-width:18.8976;stroke-dasharray:none;stroke-opacity:1"><tspan
         x="554.15039"
         y="519.73703"
         id="tspan20774">App
</tspan><tspan
         x="554.15039"
         y="534.73703"
         id="tspan20776">Icon </tspan></text><path
       style="fill:#808080;fill-opacity:1;stroke-width:0.0470864"
       d="m 42.055659,1077.1615 c -0.3221,-0.1523 -0.34492,-0.2063 -1.29025,-3.0485 -0.95326,-2.866 -0.91382,-2.7723 -1.28377,-3.05 -0.10015,-0.075 -2.95684,-0.7131 -3.19334,-0.7131 -0.0977,0 -0.25515,0.032 -0.34997,0.072 -0.11679,0.049 -0.83443,0.7397 -2.22519,2.1423 -2.177,2.1956 -2.21293,2.2257 -2.55254,2.141 -0.23181,-0.058 -4.30948,-2.38 -4.46405,-2.5421 -0.0826,-0.087 -0.16395,-0.231 -0.18077,-0.3207 -0.0235,-0.1251 0.13558,-0.8136 0.68349,-2.9585 0.75298,-2.9476 0.75633,-2.9666 0.5818,-3.3041 -0.0415,-0.08 -0.55467,-0.6426 -1.1405,-1.25 -1.09841,-1.1389 -1.27039,-1.2755 -1.60666,-1.277 -0.0906,-4e-4 -1.20306,0.2329 -2.47204,0.5185 -3.28599,0.7395 -3.17128,0.7162 -3.35818,0.6811 -0.0948,-0.018 -0.22985,-0.096 -0.31338,-0.1805 -0.087,-0.089 -0.60405,-1.0383 -1.27027,-2.3334 -0.97888,-1.9028 -1.1231,-2.2105 -1.12039,-2.3902 0.002,-0.1156 0.0412,-0.2649 0.0898,-0.3398 0.0477,-0.073 1.02675,-1.0088 2.17577,-2.0785 2.17939,-2.0289 2.26284,-2.1208 2.26546,-2.4954 7e-4,-0.091 -0.11674,-0.8004 -0.26081,-1.5774 -0.23411,-1.2624 -0.27571,-1.4298 -0.39131,-1.5743 -0.0711,-0.089 -0.18109,-0.1998 -0.24434,-0.2463 -0.0633,-0.047 -1.30156,-0.5168 -2.75183,-1.045 -1.45026,-0.5283 -2.7163,-0.9937 -2.81342,-1.0344 -0.16535,-0.069 -0.17654,-0.087 -0.1761,-0.2765 0.002,-0.6566 0.15529,-2.2915 0.38225,-4.0636 0.15818,-1.2351 0.2258,-1.4631 0.47995,-1.618 0.10323,-0.063 0.6904,-0.1886 1.89189,-0.405 3.96088,-0.7133 3.98506,-0.7182 4.18992,-0.8608 0.22682,-0.1578 0.31221,-0.3188 0.85539,-1.613 0.42559,-1.014 0.48916,-1.2724 0.3852,-1.566 -0.0345,-0.097 -0.77249,-1.1095 -1.64005,-2.2492 -2.00836,-2.6383 -1.88346,-2.4583 -1.88346,-2.7145 0,-0.1154 0.0234,-0.2535 0.0519,-0.3068 0.0457,-0.085 0.65812,-0.8513 2.79415,-3.4944 0.793,-0.9812 0.82385,-0.9897 1.9237,-0.5282 0.39369,0.1651 1.13959,0.475 1.65754,0.6885 0.51795,0.2136 1.3943,0.5764 1.94743,0.8062 1.07985,0.4488 1.32732,0.501 1.66797,0.3515 0.0834,-0.037 0.54244,-0.3397 1.02024,-0.6736 0.97732,-0.6831 1.08565,-0.8086 1.08502,-1.2567 -1.8e-4,-0.1319 -0.0942,-1.4408 -0.209,-2.9087 -0.14781,-1.8907 -0.19586,-2.7152 -0.16476,-2.8279 0.092,-0.3331 0.13373,-0.3516 2.88723,-1.2823 1.41982,-0.4798 2.64381,-0.8724 2.71998,-0.8724 0.34127,0 0.44027,0.1065 1.45112,1.5614 2.64615,3.8086 2.39089,3.4637 2.66206,3.5964 0.24467,0.1197 0.25104,0.1202 1.11204,0.091 1.37422,-0.046 1.30074,-0.034 1.50301,-0.2417 0.11303,-0.1159 0.48559,-0.7578 1.03434,-1.7821 0.47172,-0.8805 1.07223,-2.0002 1.33448,-2.4883 0.26224,-0.488 0.52778,-0.9383 0.59008,-1.0006 0.0623,-0.062 0.19311,-0.1372 0.29068,-0.1664 0.16029,-0.048 0.35137,-0.011 1.98293,0.3783 0.99304,0.2373 2.22917,0.5313 2.74695,0.6532 0.89777,0.2115 0.94944,0.2298 1.11491,0.3953 0.129,0.129 0.1803,0.2257 0.2,0.377 0.0146,0.1119 0.0585,1.1146 0.0975,2.2282 0.12629,3.6024 0.12132,3.5148 0.21149,3.7199 0.0456,0.1035 0.14385,0.2434 0.21844,0.3107 0.1492,0.1347 1.19109,0.7368 1.54843,0.8949 0.43288,0.1915 0.39913,0.2058 3.22695,-1.3628 2.76599,-1.5342 2.75883,-1.5311 3.08297,-1.3334 0.078,0.048 1.01032,0.9689 2.0718,2.0475 2.01764,2.05 2.08374,2.1304 2.03043,2.4694 -0.0134,0.085 -0.29746,0.6144 -0.63142,1.1771 -0.33395,0.5628 -0.99736,1.6799 -1.47424,2.4825 l -0.86706,1.4594 v 0.3299 c 0,0.327 0.003,0.3365 0.41736,1.083 0.50832,0.9172 0.5015,0.9073 0.73743,1.0658 0.23061,0.1549 0.0321,0.1347 3.43614,0.3488 2.23242,0.1403 2.68647,0.1807 2.82252,0.2508 0.32673,0.1684 0.25347,-0.094 1.20998,4.3349 0.33958,1.5724 0.34291,1.6461 0.0855,1.8898 -0.0668,0.063 -1.28018,0.6976 -2.69649,1.4098 -2.57007,1.2923 -2.57538,1.2953 -2.71005,1.5164 -0.13114,0.2153 -0.13694,0.2524 -0.20642,1.324 l -0.0715,1.1024 0.11806,0.2579 c 0.11627,0.254 0.15422,0.2846 2.49376,2.0108 1.44495,1.0662 2.40823,1.8081 2.45875,1.8936 0.0456,0.077 0.0832,0.2294 0.0834,0.3379 5.3e-4,0.2007 -0.0561,0.3655 -1.06915,3.1167 -0.27653,0.7511 -0.55537,1.5184 -0.61965,1.7053 -0.0832,0.2417 -0.16359,0.3808 -0.27883,0.4819 -0.27787,0.244 0.0692,0.2591 -3.85651,-0.1673 -1.0877,-0.1181 -2.0974,-0.2065 -2.24378,-0.1965 -0.19554,0.014 -0.30903,0.051 -0.42784,0.1417 -0.1525,0.1163 -1.47011,1.864 -1.61568,2.1431 -0.14591,0.2797 -0.0913,0.599 0.25669,1.5008 0.17868,0.463 0.5093,1.3292 0.73471,1.9249 0.22541,0.5956 0.53172,1.4008 0.68069,1.7892 0.14897,0.3885 0.28511,0.7654 0.30252,0.8376 0.0499,0.207 -0.0462,0.4672 -0.24073,0.6516 -0.19628,0.1859 -3.77577,2.9021 -4.02405,3.0535 -0.16994,0.1036 -0.38636,0.1218 -0.5787,0.049 -0.0676,-0.026 -1.10017,-0.834 -2.29466,-1.7962 -1.19448,-0.9622 -2.2265,-1.778 -2.29337,-1.8129 -0.28271,-0.1475 -0.53588,-0.091 -1.91027,0.4306 -0.71756,0.272 -1.35885,0.5372 -1.42508,0.5893 -0.21488,0.169 -0.33211,0.3769 -0.40662,0.721 -0.0402,0.1856 -0.30894,1.4605 -0.59724,2.8331 -0.28832,1.3725 -0.55912,2.5553 -0.60179,2.6283 -0.14584,0.2495 -0.31054,0.307 -1.16563,0.4068 -2.07981,0.2427 -4.15633,0.3467 -4.42107,0.2215 z m 2.68394,-11.7776 c 4.29641,-0.5933 7.90937,-2.5814 10.68047,-5.8771 1.999,-2.3774 3.29197,-5.4102 3.68812,-8.6507 0.10177,-0.8325 0.11594,-2.7774 0.0259,-3.5551 -0.36075,-3.1158 -1.42888,-5.8285 -3.25137,-8.2573 -2.26308,-3.016 -5.55636,-5.193 -9.23365,-6.1039 -1.38937,-0.3441 -2.43066,-0.4672 -3.95775,-0.4677 -1.33446,-5e-4 -2.08231,0.07 -3.24922,0.3046 -5.88832,1.1856 -10.59445,5.3753 -12.49739,11.1261 -0.27664,0.836 -0.50883,1.8927 -0.695,3.1628 -0.0844,0.5759 -0.0848,3.2264 -5.3e-4,3.8376 0.37456,2.7176 1.17607,4.9248 2.57328,7.0865 1.24462,1.9255 3.03763,3.6946 5.02618,4.959 2.14265,1.3623 4.72708,2.2432 7.33592,2.5004 0.68505,0.068 2.88638,0.027 3.55503,-0.065 z"
       id="path11788" /><text
       xml:space="preserve"
       transform="matrix(0.26458333,0,0,0.26458333,-41.883848,-118.11865)"
       id="text12084"
       style="font-size:96px;white-space:pre;shape-inside:url(#rect12086);display:inline;fill:#808080;fill-opacity:1;stroke:none;stroke-width:18.8976;stroke-dasharray:none;stroke-opacity:1"><tspan
         x="547.04297"
         y="590.70871"
         id="tspan20778">Menu Here ------------------------</tspan></text><text
       xml:space="preserve"
       transform="matrix(0.26458333,0,0,0.26458333,766.62507,-120.06581)"
       id="text12084-8"
       style="font-size:96px;white-space:pre;shape-inside:url(#rect12086-2);display:inline;fill:#808080;fill-opacity:1;stroke:none;stroke-width:18.8976;stroke-dasharray:none;stroke-opacity:1"><tspan
         x="547.04297"
         y="590.70871"
         id="tspan20780">TemplateVIEW</tspan></text><g
       id="g16092"
       transform="translate(0.46603504,10.618099)"><g
         id="g16054"><rect
           style="fill:none;fill-opacity:1;stroke:#808080;stroke-width:3.58732;stroke-dasharray:none;stroke-opacity:1"
           id="rect15264"
           width="52.788284"
           height="52.461113"
           x="16.988596"
           y="150.40868" /><text
           xml:space="preserve"
           transform="matrix(0.12860225,0,0,0.12860225,-30.09079,85.134131)"
           id="text15320"
           style="font-size:96px;white-space:pre;shape-inside:url(#rect15322);display:inline;fill:#808080;fill-opacity:1;stroke:none;stroke-width:18.8976;stroke-dasharray:none;stroke-opacity:1"><tspan
             x="444.26562"
             y="620.89426"
             id="tspan20782">0010</tspan></text><text
           xml:space="preserve"
           transform="matrix(0.12860225,0,0,0.12860225,-29.983528,100.2175)"
           id="text15320-9"
           style="font-size:96px;white-space:pre;shape-inside:url(#rect15322-4);display:inline;fill:#808080;fill-opacity:1;stroke:none;stroke-width:18.8976;stroke-dasharray:none;stroke-opacity:1"><tspan
             x="444.26562"
             y="620.89426"
             id="tspan20784">0000</tspan></text><text
           xml:space="preserve"
           transform="matrix(0.12860225,0,0,0.12860225,-29.983528,115.30087)"
           id="text15320-9-4"
           style="font-size:96px;white-space:pre;shape-inside:url(#rect15322-4-7);display:inline;fill:#808080;fill-opacity:1;stroke:none;stroke-width:18.8976;stroke-dasharray:none;stroke-opacity:1"><tspan
             x="444.26562"
             y="620.89426"
             id="tspan20786">0110</tspan></text></g><path
         style="fill:none;fill-opacity:1;stroke:#808080;stroke-width:2;stroke-dasharray:none;stroke-opacity:1"
         d="m 16.988596,167.9579 52.788282,0.25333"
         id="path15446" /><path
         style="fill:none;fill-opacity:1;stroke:#808080;stroke-width:2;stroke-dasharray:none;stroke-opacity:1"
         d="m 16.45943,182.95056 52.788282,0.25333"
         id="path15446-4" /></g><g
       id="g16062"
       transform="translate(0.95925243,25.910306)"><path
         style="fill:none;fill-opacity:1;stroke:#808080;stroke-width:4.2;stroke-linecap:round;stroke-dasharray:none;stroke-opacity:1;marker-start:url(#Arrow1);marker-end:url(#Arrow1)"
         d="m 17.454631,213.48788 v 52.46111 h 52.788282"
         id="path15641" /><path
         style="fill:none;fill-opacity:1;stroke:#808080;stroke-width:2.4;stroke-linecap:butt;stroke-dasharray:2.4, 2.4;stroke-dashoffset:0;stroke-opacity:1"
         d="m 16.983797,259.15676 c 0,0 14.290908,-40.05934 23.4515,-26.48682 13.623751,20.18521 31.907616,-12.9102 31.907616,-12.9102"
         id="path15645"
         sodipodi:nodetypes="csc" /></g></g></svg>
